<?xml version="1.0" encoding="UTF-8" standalone="no"?>
<!-- Created with Inkscape (http://www.inkscape.org/) -->

<svg
   width="65.124001mm"
   height="7.0819998mm"
   viewBox="0 0 65.124001 7.0819998"
   version="1.1"
   id="svg5"
   inkscape:version="1.2 (dc2aedaf03, 2022-05-15)"
   sodipodi:docname="logo.svg"
   xmlns:inkscape="http://www.inkscape.org/namespaces/inkscape"
   xmlns:sodipodi="http://sodipodi.sourceforge.net/DTD/sodipodi-0.dtd"
   xmlns="http://www.w3.org/2000/svg"
   xmlns:svg="http://www.w3.org/2000/svg">
  <sodipodi:namedview
     id="namedview7"
     pagecolor="#ffffff"
     bordercolor="#000000"
     borderopacity="0.25"
     inkscape:showpageshadow="2"
     inkscape:pageopacity="0.0"
     inkscape:pagecheckerboard="0"
     inkscape:deskcolor="#d1d1d1"
     inkscape:document-units="mm"
     showgrid="false"
     inkscape:zoom="2.1414817"
     inkscape:cx="175.81285"
     inkscape:cy="145.927"
     inkscape:window-width="1920"
     inkscape:window-height="1111"
     inkscape:window-x="-9"
     inkscape:window-y="-9"
     inkscape:window-maximized="1"
     inkscape:current-layer="layer1" />
  <defs
     id="defs2" />
  <g
     inkscape:label="Layer 1"
     inkscape:groupmode="layer"
     id="layer1">
    <g
       aria-label="NorthernFiles"
       id="text186"
       style="font-weight:bold;font-size:9.87777px;font-family:'Comic Sans MS';-inkscape-font-specification:'Comic Sans MS Bold';fill:#ff2222;stroke:none;stroke-width:7.05501;stroke-linecap:round;stroke-linejoin:round;stroke-miterlimit:17;stroke-opacity:0.0461095;paint-order:stroke fill markers"
       transform="matrix(1,0,0,0.99994889,-58.870273,-84.727669)">
      <path
         d="m 58.870273,85.492588 v 6.222996 h 1.679221 v -3.63502 l 1.205088,2.26201 c 0.5334,0.997655 1.28411,1.471788 2.35091,1.471788 0.977899,0 1.728609,-0.316089 2.252131,-0.908755 L 65.824224,89.82893 c -0.345722,0.404988 -0.928511,0.642055 -1.491544,0.691444 v -5.027786 h -1.679221 v 3.407831 c -0.06914,-0.06914 -0.217311,-0.325966 -0.316088,-0.513644 l -1.55081,-2.894187 z"
         style="fill:#bc1318;stroke:none"
         id="path4735" />
      <path
         d="m 65.290822,89.265897 c 0,1.777998 1.254477,2.548465 2.637365,2.548465 1.382887,0 2.627487,-0.770467 2.627487,-2.548465 0,-0.375356 -0.05927,-0.7112 -0.167923,-0.987777 0.592667,-0.01976 1.165577,-0.158045 1.659466,-0.474133 L 71.523695,86.81621 c -0.523522,0.276577 -1.007533,0.385233 -1.501421,0.385233 -0.158044,0 -0.306211,-0.0099 -0.464255,-0.02963 -0.454378,-0.30621 -1.027288,-0.454377 -1.629832,-0.454377 -1.382888,0 -2.637365,0.760588 -2.637365,2.548465 z m 2.637365,-1.363133 c 0.602544,0 1.027288,0.424745 1.027288,1.353255 0,0.92851 -0.424744,1.37301 -1.027288,1.37301 -0.602544,0 -1.037166,-0.4445 -1.037166,-1.37301 0,-0.92851 0.434622,-1.353255 1.037166,-1.353255 z"
         style="fill:#bc1318;stroke:none"
         id="path4737" />
      <path
         d="m 71.168096,86.737188 c -0.128411,0.375355 -0.138289,0.948265 0,1.313743 h 0.316088 v 3.141131 h 1.600199 c 0,-0.572911 0,-2.271887 0,-2.844798 0.404989,0.02963 1.086555,-0.01975 1.382888,-0.197555 l -0.158044,2.242254 c -0.05927,0.770466 0.316088,1.422399 1.491543,1.422399 0.879121,0 1.481665,-0.375356 1.837265,-0.948266 l -0.414866,-0.997655 c -0.237067,0.345722 -0.661811,0.701321 -0.958144,0.66181 -0.296333,-0.04939 -0.375355,-0.266699 -0.3556,-0.57291 l 0.167922,-2.765776 c 0.02963,-0.296333 -0.207433,-0.523522 -0.493888,-0.474133 -1.096433,0.1778 -1.748365,0.256822 -2.548465,0.335844 -0.06914,-0.167922 -0.167922,-0.296333 -0.3556,-0.335844 -0.187677,-0.03951 -0.39511,-0.05927 -0.612421,-0.05927 -0.286456,0 -0.592667,0.02963 -0.898877,0.07902 z"
         style="fill:#bc1318;stroke:none"
         id="path4739" />
      <path
         d="m 77.163905,85.670388 v 1.145822 h -0.8001 v 1.126065 h 0.8001 v 2.429932 c 0,0.750711 0.513644,1.442155 1.85702,1.442155 1.056922,0 1.738488,-0.395111 2.153354,-0.948266 l -0.57291,-0.997655 c -0.256822,0.345722 -0.849489,0.66181 -1.214966,0.66181 -0.385233,0 -0.6223,-0.217311 -0.6223,-0.592666 v -1.99531 h 2.43981 V 86.81621 h -2.43981 v -1.145822 z"
         style="fill:#bc1318;stroke:none"
         id="path4741" />
      <path
         d="m 80.551977,84.801145 v 6.914439 h 1.600199 v -3.151009 c 0.237066,-0.316089 0.622299,-0.572911 0.918632,-0.572911 0.3556,0 0.543278,0.306211 0.5334,0.592667 l -0.04939,1.837265 c -0.01976,0.75071 0.325966,1.392766 1.511299,1.392766 0.83961,0 1.392765,-0.424745 1.748365,-0.958144 l -0.414866,-0.997655 c -0.227189,0.296333 -0.592666,0.711199 -0.918633,0.651933 -0.217311,-0.02963 -0.335844,-0.207433 -0.325966,-0.523522 l 0.04939,-1.837265 c 0.01976,-0.928511 -0.681567,-1.432277 -1.46191,-1.432277 -0.661811,0 -1.195211,0.365477 -1.590321,0.770466 v -2.686753 z"
         style="fill:#bc1318;stroke:none"
         id="path4743" />
      <path
         d="m 89.096256,91.814362 c 1.382888,0 2.271887,-0.424745 3.091742,-1.185333 l -0.701322,-0.770466 c -0.691444,0.523522 -1.382888,0.849488 -2.350909,0.849488 -0.602544,0 -1.047044,-0.187677 -1.28411,-0.563033 1.521176,-0.07902 2.696631,-0.523522 2.696631,-1.758243 0,-1.076677 -0.869244,-1.669343 -2.123721,-1.669343 -1.28411,0 -2.429931,0.750711 -2.429931,2.410176 0,1.698976 1.205088,2.686754 3.10162,2.686754 z m -1.491544,-2.627487 c -0.0099,-0.03951 -0.0099,-0.0889 -0.0099,-0.148167 0.03951,-0.760588 0.375355,-1.135944 0.859366,-1.135944 0.404988,0 0.622299,0.197556 0.622299,0.513644 0,0.474133 -0.553155,0.661811 -1.471788,0.770467 z"
         style="fill:#bc1318;stroke:none"
         id="path4745" />
      <path
         d="m 91.111323,86.737188 c -0.128411,0.375355 -0.138288,0.948265 0,1.313743 h 0.316089 v 3.141131 h 1.600199 c 0,-0.572911 0,-2.271887 0,-2.844798 0.404988,0.02963 1.086555,-0.01975 1.382888,-0.197555 l -0.158045,2.242254 c -0.05927,0.770466 0.316089,1.422399 1.491544,1.422399 0.879121,0 1.481665,-0.375356 1.837265,-0.948266 l -0.414866,-0.997655 c -0.237067,0.345722 -0.661811,0.701321 -0.958144,0.66181 -0.296333,-0.04939 -0.375355,-0.266699 -0.3556,-0.57291 l 0.167922,-2.765776 c 0.02963,-0.296333 -0.207433,-0.523522 -0.493888,-0.474133 -1.096433,0.1778 -1.748366,0.256822 -2.548465,0.335844 -0.06914,-0.167922 -0.167922,-0.296333 -0.3556,-0.335844 -0.187677,-0.03951 -0.395111,-0.05927 -0.612422,-0.05927 -0.286455,0 -0.592666,0.02963 -0.898877,0.07902 z"
         style="fill:#bc1318;stroke:none"
         id="path4747" />
      <path
         d="m 97.126888,86.81621 v 4.899374 h 1.600199 v -3.151009 c 0.237066,-0.316089 0.622299,-0.572911 0.918632,-0.572911 0.355601,0 0.543281,0.306211 0.533401,0.592667 l -0.0494,1.837265 c -0.0198,0.75071 0.32597,1.392766 1.5113,1.392766 0.81985,0 1.38289,-0.395111 1.73849,-0.948266 l -0.41487,-0.997655 c -0.24694,0.345722 -0.61242,0.701321 -0.85937,0.66181 -0.27657,-0.04939 -0.38523,-0.227188 -0.37535,-0.543277 l 0.0494,-1.837265 c 0.0198,-0.928511 -0.68157,-1.432277 -1.46191,-1.432277 -0.661813,0 -1.195212,0.365477 -1.590323,0.770466 V 86.81621 Z"
         style="fill:#bc1318;stroke:none"
         id="path4749" />
      <path
         d="m 102.79672,85.492588 v 2.469443 c -0.23706,-0.04939 -0.45438,-0.09878 -0.64205,-0.148167 v 1.195211 c 0.19755,0.04939 0.40499,0.09878 0.64205,0.138288 v 2.568221 h 1.67922 v -2.429932 c 1.22485,0.01976 2.58798,-0.207433 3.556,-1.007532 l -0.54328,-1.007533 c -0.80997,0.671688 -1.94592,0.869244 -3.01272,0.849488 v -1.353254 h 2.24226 v -1.274233 z"
         style="fill:#000000;stroke:none"
         id="path4751" />
      <path
         d="m 107.26148,85.512344 c 0,0.5334 0.39511,0.790222 0.889,0.790222 0.48401,0 0.87912,-0.256822 0.87912,-0.790222 0,-0.523522 -0.39511,-0.780344 -0.87912,-0.780344 -0.49389,0 -0.889,0.256822 -0.889,0.780344 z m 0.0494,1.303866 v 3.605386 c 0,0.75071 0.5334,1.392766 1.6891,1.392766 0.80998,0 1.26435,-0.404989 1.67922,-0.958144 l -0.56303,-0.958144 c -0.25682,0.345722 -0.60255,0.671688 -0.89888,0.612422 -0.22719,-0.02963 -0.30621,-0.207433 -0.30621,-0.523522 V 86.81621 Z"
         style="fill:#000000;stroke:none"
         id="path4753" />
      <path
         d="m 110.0964,84.860411 v 5.511796 c 0,0.750711 0.54328,1.442155 1.70886,1.442155 0.82973,0 1.27423,-0.395111 1.68909,-0.948266 l -0.56303,-0.997655 c -0.24694,0.345722 -0.60254,0.701321 -0.91863,0.642055 -0.22719,-0.02963 -0.31609,-0.256822 -0.31609,-0.572911 v -5.077174 z"
         style="fill:#000000;stroke:none"
         id="path4755" />
      <path
         d="m 115.77612,91.814362 c 1.38288,0 2.27188,-0.424745 3.09174,-1.185333 l -0.70132,-0.770466 c -0.69145,0.523522 -1.38289,0.849488 -2.35091,0.849488 -0.60255,0 -1.04705,-0.187677 -1.28411,-0.563033 1.52117,-0.07902 2.69663,-0.523522 2.69663,-1.758243 0,-1.076677 -0.86924,-1.669343 -2.12372,-1.669343 -1.28411,0 -2.42993,0.750711 -2.42993,2.410176 0,1.698976 1.20508,2.686754 3.10162,2.686754 z m -1.49155,-2.627487 c -0.01,-0.03951 -0.01,-0.0889 -0.01,-0.148167 0.0395,-0.760588 0.37535,-1.135944 0.85936,-1.135944 0.40499,0 0.6223,0.197556 0.6223,0.513644 0,0.474133 -0.55315,0.661811 -1.47179,0.770467 z"
         style="fill:#000000;stroke:none"
         id="path4757" />
      <path
         d="m 117.77143,89.581985 c -0.18768,1.452033 0.65193,2.232377 2.33115,2.232377 0.37536,0 0.70133,-0.03951 0.96803,-0.118534 0.23706,0.07902 0.50376,0.118534 0.83961,0.118534 1.03716,0 1.69897,-0.385234 2.08421,-0.938389 l -0.57291,-1.007532 c -0.1778,0.355599 -0.43463,0.66181 -0.87913,0.730955 -0.0988,0.0099 -0.18767,0.0099 -0.27657,-0.0099 0.0395,-0.118533 0.0593,-0.256822 0.0593,-0.404989 0,-2.005187 -2.65712,-1.175454 -2.65712,-1.876776 0,-0.325966 0.50377,-0.375355 0.92851,-0.365478 v -1.205087 c -1.57056,0 -2.46944,0.543277 -2.46944,1.521176 0,2.005188 2.60773,1.056922 2.60773,1.787877 0,0.424744 -0.43462,0.543277 -0.72108,0.543277 -0.52352,0 -0.89887,-0.2667 -0.81985,-0.829733 z"
         style="fill:#000000;stroke:none"
         id="path4759" />
    </g>
  </g>
</svg>
