<svg xmlns="http://www.w3.org/2000/svg" width="154.69" height="260.977" viewBox="0 0 154.69 260.977">
  <g transform="translate(1422.712 1205.543)">
    <path d="M-1326.49-1136.3c1.2-1.437,2.3-2.975,3.618-4.29,3.334-3.321,6.767-6.542,10.161-9.8l.611.921a.9.9,0,0,1-.047.293c-2.909,5.236-5.939,10.409-8.7,15.721-2.473,4.755-4.714,9.635-6.937,14.514-1.3,2.864-2.367,5.837-3.557,8.754-.243.6-.572,1.157-.861,1.735l-.294.785c-.686,1.428-1.333,2.877-2.065,4.281-3.007,5.767-6.13,11.475-9.02,17.3-1.25,2.52-2.038,5.269-3.036,7.913a6.085,6.085,0,0,0-.567,4.826c-.39.193-1.067.322-1.126.589a50.532,50.532,0,0,0-1.438,7.687c-.086,1.33.7,2.792,1.327,4.075.9,1.831,2.691,2.61,4.526,3.239l-.839,3.031c-1.089-.211-2.194-.365-3.264-.649a21.522,21.522,0,0,1-2.7-.966,41.441,41.441,0,0,0-3.954-1.682,4.374,4.374,0,0,1-2.841-3.163c1.545-.358,1.982-1.035,1.586-2.489-.346-1.27-.722-2.532-1.053-3.806a8.34,8.34,0,0,0-.4-1.874c-1.9-3.46.142-6.435,1.206-9.465a44.6,44.6,0,0,1,2.818-5.521c1.895-.277,1.475-.292,1.551-2.423a20.409,20.409,0,0,1,1.355-5.452c.223-.668.882-1.261.866-2.164-.04-2.332-.228-4.7,1.1-6.82.074-.117-.145-.417-.227-.631a13.312,13.312,0,0,1,.7-1.638q4.154-7,8.349-13.979c3.643-6.05,8.242-11.36,12.858-16.663C-1326.379-1134.572-1324.991-1135.391-1326.49-1136.3Zm-28.5,67.066c-.442.588-.861.911-.814,1.138.071.35.462.635.716.947.228-.214.639-.426.642-.642A5.08,5.08,0,0,0-1354.986-1069.238Z" transform="translate(-38.739 -33.083)" fill="#60808d"/>
    <path d="M-1400.167-844.523c-.3-2.105-.667-4.2-.891-6.316q-.77-7.278-1.406-14.569c-.1-1.216.192-2.465.1-3.685-.108-1.456-.56-2.889-.63-4.343-.079-1.643.1-3.3.167-4.95l3.5,1.524a14.705,14.705,0,0,0,.1,2.539,4.486,4.486,0,0,0,.971,2.438,9.713,9.713,0,0,0,3.3,1.645c4.166,1.324,8.345,2.614,12.558,3.775,2.425.669,4.925,1.067,7.391,1.588q0,.436.008.873l-1.035.153.005.3,1.752.279c.431,2.462.014,2.97-2.194,3.209a6.4,6.4,0,0,0-1.914.927,10.822,10.822,0,0,1-1.861-.381c-2.46-.961-4.9-1.979-7.343-2.976l-.918-.156c1.3,6.094,2.513,12.1,3.889,18.077.81,3.517,1.883,6.973,2.838,10.457a14.316,14.316,0,0,1-2.788-2.694c-2.117-3.6-4.027-7.325-6.017-11l-.3-.9-.568-.625q-.011-.292-.022-.584l-.3-.892-5.818-17.8-.443.13c0,1.181-.1,2.371.017,3.54.551,5.51,1.161,11.014,1.75,16.52l-.767.608c-.279-2.322-.279-2.322-1.074-2.857-1.414,2.246-1.527,3.81.407,5.169l-1.235,2.094C-1399.675-843.642-1398.643-845.127-1400.167-844.523Z" transform="translate(-11.818 -196.262)" fill="#708c98"/>
    <path d="M-1410.863-891.26l-3.5-1.523c-1.713-1.318-3.478-2.576-5.125-3.973a7.359,7.359,0,0,1-2.757-4.434c.518.269,1.061.5,1.549.815,1.907,1.228,3.8,2.483,5.693,3.727a9.809,9.809,0,0,0,1.07.795,75.491,75.491,0,0,0,21.682,7.824c7.041,1.442,14.007,3.3,21.24,3.708,4.557.258,9.1.837,13.654,1.094,3.073.174,6.163.075,9.245.032,5.083-.07,10.168-.111,15.247-.318,4.617-.188,9.233-.509,13.835-.922a37.868,37.868,0,0,0,5.025-1.122,13.9,13.9,0,0,0,2.229-.154c6.273-1.437,12.591-2.715,18.79-4.425,9.141-2.521,17.869-6.027,25.243-12.251a9.473,9.473,0,0,1-4.43,6.4c-.912.593-1.742,1.309-2.61,1.969a23.148,23.148,0,0,0-3.137.74c-4.4,1.686-8.669,3.785-13.173,5.093-5.507,1.6-11.179,2.663-16.819,3.758-3.987.775-8.031,1.279-12.063,1.794-3.837.489-7.685.935-11.541,1.216-4.363.319-8.741.429-13.112.647a6.8,6.8,0,0,0-1.155.258l-.3.281-.022,0-.2-.015a3.964,3.964,0,0,0-1.223-.525c-1.342-.078-2.7.019-4.036-.07q-8.16-.542-16.315-1.159c-2.593-.192-5.184-.424-7.775-.645-.146-.012-.284-.1-.43-.121q-4.661-.812-9.325-1.615c-2.193-.374-4.4-.679-6.583-1.1-1.962-.381-3.9-.877-5.846-1.34-.217-.052-.555-.193-.583-.341-.191-1.03-.974-.787-1.637-.83a5.529,5.529,0,0,1-1.325-.14C-1404.552-889.16-1407.706-890.215-1410.863-891.26Z" transform="translate(-0.281 -181.863)" fill="#593b2f"/>
    <path d="M-1112.245-698.6l.584.3q.021.591.042,1.182a7.751,7.751,0,0,0-.314,1.146c-.482,4.018-2.766,7.222-5.08,10.259-2.69,3.529-5.872,6.683-8.82,10.018-.171.194-.157.551-.23.831a17.008,17.008,0,0,1-14.312.406,39.149,39.149,0,0,1-4.231-2.264l-3.339-5.07c.134-.19.325-.563.392-.542,1.351.426,2.984-.966,4.165.643.128.174.557.127.846.183.029,1.122.731,1.111,1.393.674,2.857-1.888,5.672-3.84,8.5-5.768l6.632-3.863c2.411-.875,4.853-1.675,7.219-2.658a19.168,19.168,0,0,0,2.942-1.884,4.555,4.555,0,0,0,1.395-.729C-1113.656-696.626-1112.975-697.632-1112.245-698.6Z" transform="translate(-164.833 -304.118)" fill="#708c98"/>
    <path d="M-1231.623-867.962a6.807,6.807,0,0,1,1.154-.258c4.371-.218,8.749-.328,13.112-.647,3.857-.282,7.7-.727,11.541-1.216,4.033-.515,8.076-1.019,12.063-1.794,5.64-1.1,11.313-2.159,16.819-3.759,4.5-1.308,8.775-3.408,13.173-5.093a23.125,23.125,0,0,1,3.137-.74c-.168,2.083-.319,4.168-.512,6.248-.068.728-.24,1.445-.365,2.167a4.466,4.466,0,0,1-.532-1.328c-.094-1.819-.282-1.993-2-1.344a7.348,7.348,0,0,0-1.327.855l-7.213,2.662-12.875,3.34a6.516,6.516,0,0,0-1.045.051c-3.389.708-6.75,1.588-10.166,2.121-6.309.983-12.631,1.961-18.983,2.571-5.287.508-10.625.485-15.94.7l-.341-.036-.028-4.221.022,0Z" transform="translate(-114.44 -194.413)" fill="#577581"/>
    <path d="M-1360.51-607.094c-9.316-6.06-18.2-12.632-25.391-21.236a3.4,3.4,0,0,1-.338-.64c.951-1.612.973.68,1.665.359v-.949l4.708,3.4,2.931-4.928,1.2,1.181c4.046,3.158,8.084,6.326,12.146,9.464a25.36,25.36,0,0,0,2.233,1.395c2.148,1.845,4.26,3.734,6.459,5.516a39.864,39.864,0,0,0,3.44,2.268,2.207,2.207,0,0,1,.094,2.294,36.984,36.984,0,0,0-1.586,3.945q-.007.14-.008.28l-.012,0c-1.168,1.165-2.106.167-3.116-.313C-1357.55-605.755-1359.034-606.417-1360.51-607.094Z" transform="translate(-21.88 -344.613)" fill="#658390"/>
    <path d="M-1150.435-605.42l-.448.219-.354.242-.009.013-3.364,1.117c0-.109,0-.218,0-.327a22.112,22.112,0,0,0-1.493-3.631c-.874-1.4-1.51-2.647-.265-4.109l5.376-4.765c1.514-1.2,3.118-2.295,4.527-3.6a64.538,64.538,0,0,1,16.148-10.825,5.719,5.719,0,0,1-3.2,5.5c-.667.4-.9,1.532-1.41,2.487,2.431-.269,2.378-.31,3.476-1.761a2.046,2.046,0,0,1,1.576-.787,12.127,12.127,0,0,1,2.591,1.066l-.649,1.266c-.73,1.006-2.553,1.124-2.349,2.891-2.221,1.889-4.35,3.9-6.685,5.638-3.706,2.754-7.551,5.323-11.338,7.97l-.325.232-.446.217-.374.229-.684.5Z" transform="translate(-159.36 -344.614)" fill="#577581"/>
    <path d="M-1393.808-697.007l.358-.028a13.942,13.942,0,0,0,2.5,2.986c2.557,1.727,5.293,3.189,7.957,4.758l7.784,4.254c2.376,1.43,4.7,2.953,7.147,4.255a36.037,36.037,0,0,0,4.543,1.718c-.072.665.1,1.576-.264,1.944-.851.852-.609,1.494-.036,2.251a5.625,5.625,0,0,1-1.606,1.041,65.491,65.491,0,0,1-8.263,1.585,29.124,29.124,0,0,1-5.733-.563l-2.683-1.735q-1.6-2.281-3.19-4.563c-1.147-1.644-2.314-3.274-3.432-4.936-.819-1.219-1.573-2.481-2.357-3.724-.1-.278-.186-.56-.3-.832C-1392.495-691.311-1394.22-693.85-1393.808-697.007Z" transform="translate(-17.302 -305.054)" fill="#708c98"/>
    <path d="M-1094.737-661.593l.649-1.266a12.142,12.142,0,0,0-2.591-1.066,2.046,2.046,0,0,0-1.576.787c-1.1,1.452-1.045,1.492-3.476,1.761.514-.954.743-2.089,1.41-2.487a5.719,5.719,0,0,0,3.2-5.5l4.225-4.13-.3-.413-5.142,1.273c.072-.281.058-.638.23-.832,2.948-3.335,6.13-6.488,8.82-10.018,2.315-3.037,4.6-6.241,5.081-10.259a7.793,7.793,0,0,1,.314-1.145,21.543,21.543,0,0,1,3.027,1.594c1.7,1.257,2.368,2.274,1.378,4.584a51.547,51.547,0,0,0-1.72,5.1c-.139.449-.441,1.164.581,1.052a7.652,7.652,0,0,1-.145,1.888,44.16,44.16,0,0,1-1.7,4.341c-.218.479-.961.747-1.11,1.223a4.155,4.155,0,0,1-2.693,3.014c-.037.8-.072,1.548-.106,2.294l-.058.076-.709.809-.648.75-.94,1.169-.006.006-.586.607-.524.561-1.866,2.149-2.2,2.069-.788.032Zm1.014-2.812.309.387,1.344-.749-.345-.538Z" transform="translate(-192.556 -306.343)" fill="#506b79"/>
    <path d="M-1105.449-925.352c-7.374,6.224-16.1,9.73-25.243,12.251-6.2,1.71-12.518,2.988-18.79,4.425a13.852,13.852,0,0,1-2.229.154c.876-1.231,2.252-2.24,1.8-4.059,3.492-.765,7.028-1.376,10.465-2.339,3.561-1,7.028-2.333,10.536-3.521,1.432-.53,2.9-.985,4.291-1.6,3.377-1.5,6.624-3.223,8.664-6.5a4.065,4.065,0,0,0,.214-1.569c-.005-.3.09-.649-.032-.888a12.442,12.442,0,0,1-1.2-6.267c.01-.291-.35-.594-.538-.892q-.026-.589-.051-1.179-.269-1.665-.538-3.33a13.51,13.51,0,0,1,5.7,7.445c.993,3.053,1.508,6.251-1.542,8.731a5.543,5.543,0,0,0-.945,1.545l.375.256a48.48,48.48,0,0,0,5.418-3.838,7.538,7.538,0,0,0,2.822-5.967l.706.85Q-1105.507-928.5-1105.449-925.352Z" transform="translate(-162.574 -158.898)" fill="#967251"/>
    <path d="M-1402.769-677.943c.783,1.243,1.538,2.505,2.357,3.724,1.118,1.663,2.284,3.293,3.432,4.936q1.593,2.282,3.189,4.562l-3.982-.771c1.275,1.482,2.508,2.937,3.777,4.36.167.187.524.205.794.3l-2.931,4.928-4.708-3.4v.949c-.691.321-.713-1.97-1.665-.359-1.731-2.4-3.787-4.643-5.119-7.251-2.094-4.1-3.721-8.44-5.488-12.7a7.43,7.43,0,0,1-.242-2,2.47,2.47,0,0,1,.354.455c.727,1.585,1.386,3.2,2.192,4.748.247.472.889.737,1.35,1.1a7.191,7.191,0,0,0,.077-1.574,22.526,22.526,0,0,0-.611-2.3l1.419.693v-1.694c1.568,2.5,3.086,1.546,4.491.577Z" transform="translate(-5.614 -314.875)" fill="#577581"/>
    <path d="M-1175.026-1117.456a99.307,99.307,0,0,1,7.5,7.427c4.964,6.022,9.822,12.147,14.413,18.456,2.98,4.1,5.468,8.557,8.07,12.917,1.786,2.994,3.406,6.088,5.061,9.158a8.182,8.182,0,0,1,.489,1.658l-3.618,1.662-.262-.927c-1.611-3.242-3.043-6.589-4.875-9.7-2.846-4.837-5.945-9.526-8.991-14.243a9.111,9.111,0,0,0-1.712-1.571,4.642,4.642,0,0,0-.374-1.41c-1.194-1.819-2.407-3.63-3.7-5.375-2.125-2.859-4.306-5.677-6.492-8.489-.95-1.222-1.973-2.385-2.964-3.575a13.575,13.575,0,0,0-.682-1.686c-.71-1.261-1.492-2.483-2.2-3.743C-1175.421-1116.991-1175.148-1117.266-1175.026-1117.456Z" transform="translate(-148.377 -52.843)" fill="#aac1cb"/>
    <path d="M-1343.843-1115.174c1.5.913.111,1.732-.285,2.187-4.616,5.3-9.215,10.613-12.859,16.663q-4.2,6.974-8.349,13.979a13.318,13.318,0,0,0-.7,1.638c-.555.819-1.185,1.6-1.652,2.463-2.477,4.59-4.955,9.18-7.346,13.815-1.15,2.23-2.129,4.55-3.151,6.843-1.062,2.38-2.083,4.778-3.122,7.168-.87.172-2.252.079-2.5.568a9.851,9.851,0,0,0-.708,3.705c-.027.354.524.751.81,1.127q0,.146-.007.293l-3.343,1.512v-3.352l.052-.558c.826-.163,1.195-.478.393-1.182l.243-.613c1.266-.122,1.444-1.243,1.885-2.094q2.568-4.948,5.094-9.918c1.194-2.338,2.349-4.7,3.569-7.022,1.059-2.018,2.176-4.007,3.283-6,1.363-2.453,2.743-4.9,4.117-7.346a15.8,15.8,0,0,0,1.149-1.515c.85-1.438,1.614-2.927,2.475-4.358,1.577-2.621,3.189-5.221,4.809-7.815a15.231,15.231,0,0,1,1.254-1.688c1.247-1.49,2.423-3,1.93-5.136Z" transform="translate(-21.387 -54.212)" fill="#51707f"/>
    <path d="M-1407.238-945.977q-.026.279-.052.558l-1.167,3.956c-2.09.519-3.222,2.187-4.491,3.709-2.453,2.941-2.333,6.037.349,8.779a25.314,25.314,0,0,0,9.313,5.7c2.989,1.143,6.15,1.837,9.235,2.729l12.3,2.5,1.746.831-.824,1.456c-6.845-1.706-13.752-3.2-20.515-5.194-4.379-1.288-8.546-3.294-12.808-4.978a15.752,15.752,0,0,1-6.629-10.016c1.266-2.031,2.247-4.266,4.341-5.689a5.953,5.953,0,0,0,1.144-1.52l8.016-3.41Z" transform="translate(-1.158 -155.356)" fill="#cda66e"/>
    <path d="M-1395.927-802.975c1.524-.6.491.881,1.223,1.11l1.235-2.094c-1.934-1.359-1.821-2.923-.407-5.169.795.535.795.535,1.074,2.857l.767-.608c.207,1.451.417,2.9.621,4.354q1.347,9.58,2.693,19.161c.575,4.058,1.174,8.113,1.762,12.169l-1.635-1.049.168-.353c-2.62-.345-.791,1.782-1.187,2.767l-1.486-1.956q-2.4-14.475-4.781-28.953A15.364,15.364,0,0,1-1395.927-802.975Z" transform="translate(-16.058 -237.81)" fill="#658390"/>
    <path d="M-1201.748-1138.59c-.122.19-.395.465-.343.557.713,1.26,1.495,2.481,2.2,3.743a13.516,13.516,0,0,1,.682,1.686l.486,1.963c-.4-.331-.541-.449-.683-.565l-1.172-.948a7.212,7.212,0,0,0-.978,1.574c-.135.42.181.965.125,1.434a6.054,6.054,0,0,1-.5,1.367l-2.347-2.711a9.651,9.651,0,0,0-.647-1.332c-3.306-4.828-6.608-9.659-9.964-14.452a35.488,35.488,0,0,0-2.5-2.889q-.956-1.157-1.909-2.316l.01.013-.005-.315-.633-.9.005,0,2.427.307c3.426,2.771,6.913,5.469,10.254,8.339C-1205.283-1142.362-1203.568-1140.414-1201.748-1138.59Z" transform="translate(-121.656 -31.709)" fill="#90abb5"/>
    <path d="M-1094.727-991.786l3.618-1.662a6.512,6.512,0,0,1,.824,1.319c1.764,5.307,3.491,10.627,5.237,15.941.154.469.37.917.557,1.374a30.042,30.042,0,0,0,.009,3.994c.08.642.719,1.215,1.1,1.819q.026.59.051,1.179,0,2.305,0,4.61l-.611,0c0-1.192.045-2.385-.028-3.572-.02-.334-.384-.646-.59-.968-.193.336-.522.661-.551,1.01-.078.937.044,1.893-.068,2.822-.04.331-.523.609-.8.911-.813-2.429-1.66-4.847-2.428-7.29-.648-2.062-1.2-4.153-1.8-6.231a14.179,14.179,0,0,0-.323-1.9C-1091.914-982.888-1093.325-987.335-1094.727-991.786Z" transform="translate(-196.758 -127.236)" fill="#51707f"/>
    <path d="M-1261.575-671.571c-.562,3.269-1.028,6.558-1.727,9.8a32.145,32.145,0,0,1-1.688,4.533l-.253.437v.023q-.3.577-.591,1.155l-.018.055c-1.048.314-2.179,2.48-1.993,3.815a.141.141,0,0,1-.08.161c-1.185.026-1.085.837-1,1.638l.01-.01-.516.943-.016.027a5.187,5.187,0,0,0-2.39,4.466l0,.022q-.136.289-.27.577l-.027.036q-.145.283-.288.566l-.018.032c-2,1.1-1.9,3.23-2.5,5.021l.014-.022-.539,1.258,0,.031c-1.161-.1-.631.534-.443,1.019l-3.177,7.523-.38.676-.315,0-1.49-1.532,1.168-2.719,2.444-7.161-.014,0,.333-.655c.207-.393.415-.786.62-1.18,2.337-4.506,4.854-8.93,6.956-13.543,1.99-4.366,3.544-8.931,5.29-13.408v.008l2.047-3.025.288-.593Z" transform="translate(-84.857 -320.31)" fill="#415d6c"/>
    <path d="M-1367.393-1034.645c-1.373,2.448-2.753,4.893-4.117,7.346-1.107,1.993-2.224,3.981-3.283,6-1.22,2.325-2.375,4.684-3.569,7.022q-2.535,4.965-5.094,9.918c-.442.851-.619,1.972-1.885,2.094a115.306,115.306,0,0,1,13.008-30.863c.876-1.442,1.838-2.831,2.761-4.244,1.166-.2,1.65.418,1.824,1.469A11.215,11.215,0,0,0-1367.393-1034.645Z" transform="translate(-22.419 -100.863)" fill="#658390"/>
    <path d="M-1070.232-821.443q-1.985,16-3.971,32c-.252.495-.412,1.322-.772,1.421-1.059.29-.8,1.024-.9,1.719a23.634,23.634,0,0,1-.578,2.328l0,0a1.233,1.233,0,0,0-1.806-.6c.238-1.661.484-3.32.712-4.982.375-2.737.738-5.475,1.106-8.213q.367-2.688.734-5.375c.454-3.372.9-6.747,1.362-10.118.281-2.034.6-4.062.9-6.093l1.1,2.729.567.007c.107-.467.176-.947.328-1.4C-1071.066-819.166-1070.641-820.3-1070.232-821.443Z" transform="translate(-206.633 -230.422)" fill="#577581"/>
    <path d="M-1055.638-935.125l-.706-.85a7.538,7.538,0,0,1-2.822,5.967,48.494,48.494,0,0,1-5.418,3.838l-.375-.256a5.542,5.542,0,0,1,.945-1.545c3.05-2.479,2.535-5.678,1.542-8.731a13.506,13.506,0,0,0-5.7-7.445q-.156-1.16-.312-2.32a19.945,19.945,0,0,1,8.607,4.686,32.116,32.116,0,0,1,3.772,4.7A5.516,5.516,0,0,1-1055.638-935.125Z" transform="translate(-212.502 -155.42)" fill="#cda66e"/>
    <path d="M-1082.973-710.28a19.17,19.17,0,0,1-2.942,1.884c-2.366.983-4.808,1.783-7.22,2.658a16.964,16.964,0,0,1,.4-1.714c.61-1.816,1.369-3.591,1.87-5.435,1.007-3.707,1.882-7.45,2.811-11.178.886.988,1.784,1.967,2.638,2.982.066.078-.164.407-.257.62l-.123-.068.123.068.415.782c.12-.234.339-.468.342-.7.011-.927-.246-1.918.808-2.5l.491,3.681a4,4,0,0,1-.622,1.282,5.112,5.112,0,0,0-1.748,4.52c.061.6.146,1.191.22,1.786l2.178-.491Z" transform="translate(-197.713 -288.839)" fill="#51707f"/>
    <path d="M-1232.156-1202.037l.747-3.49.542-.016c.533,1.72,1.158,3.418,1.578,5.166q1.3,5.408,2.392,10.864a9.118,9.118,0,0,1-.175,2.44,15.1,15.1,0,0,1-1.737-.662c-1.457-.761-2.872-1.656-4.6-.766.382-2.551.863-5.092,1.117-7.657C-1232.1-1198.1-1232.19-1200.077-1232.156-1202.037Z" transform="translate(-113.565 0)" fill="#a0b8c3"/>
    <path d="M-1221.708-665.259c-3.054-4.415-4.54-9.462-5.91-14.564-.541-2.015-1.2-4-1.8-6q-.192-.75-.383-1.5.214-1.488.426-2.977l.47-.01,2.514,4.764,1.39,5.747a42.7,42.7,0,0,0,4.253,11.128c.711,1.239,1.3,2.55,1.94,3.828a5.641,5.641,0,0,1-.979-.945c-.535-.844-.983-1.742-1.467-2.619l-.453.1Z" transform="translate(-115.727 -309.09)" fill="#465760"/>
    <path d="M-1063.013-849.357c-.409,1.141-.834,2.277-1.221,3.426-.152.452-.221.932-.328,1.4l-.567-.007-1.1-2.729c.5-3.32,1.077-6.63,1.462-9.963.255-2.209.265-4.451.305-6.679a3.86,3.86,0,0,0-.534-1.336l-.945-1.53a7.351,7.351,0,0,1,1.327-.855c1.716-.649,1.9-.475,2,1.344a4.47,4.47,0,0,0,.533,1.328q.02.9.039,1.8l-.026,1.787Q-1062.544-855.361-1063.013-849.357Z" transform="translate(-213.852 -202.508)" fill="#60808d"/>
    <path d="M-1343.748-1061.256a11.225,11.225,0,0,1-.355-1.258c-.174-1.05-.658-1.671-1.824-1.469,2.9-3.979,5.74-8,8.722-11.92,1.563-2.053,3.374-3.917,5.074-5.866.493,2.139-.682,3.646-1.93,5.136a15.216,15.216,0,0,0-1.254,1.688c-1.62,2.595-3.233,5.194-4.81,7.815-.861,1.431-1.624,2.92-2.474,4.358A15.865,15.865,0,0,1-1343.748-1061.256Z" transform="translate(-46.064 -74.253)" fill="#60808d"/>
    <path d="M-1399.964-687.722l-1.312-.72c-1.4.969-2.923,1.924-4.491-.577v1.694l-1.419-.693a18.657,18.657,0,0,1-.974-1.985c-.922-2.584-.71-3.27,1.425-5.023.549-.451,1.1-.894,1.654-1.341l2.39-.6c-.412,3.157,1.314,5.7,2.429,8.411C-1400.15-688.282-1400.062-688-1399.964-687.722Z" transform="translate(-8.419 -305.096)" fill="#506b79"/>
    <path d="M-1182.157-581.809a3.086,3.086,0,0,1-4.161-1.953c-1.94-4.774-3.972-9.512-5.966-14.264-.248-.591-.49-1.185-.735-1.778l2.121-.609c1.222,2.782,2.433,5.57,3.671,8.345,1.05,2.356,2.132,4.7,3.2,7.045.259.459.511.922.777,1.377C-1182.892-583.03-1182.522-582.421-1182.157-581.809Z" transform="translate(-137.792 -363.018)" fill="#465760"/>
    <path d="M-1383.834-717.07l1.486,1.956c.4-.985-1.432-3.112,1.188-2.767l-.168.353,1.635,1.049a4.446,4.446,0,0,1,.3.8c.415,2.431.813,4.864,1.215,7.3-.739.836-1.439,1.714-2.253,2.468-.142.131-.9-.152-1.134-.438s-.2-.828-.288-1.257l-1.452-5.523-.314-1.27Q-1383.728-715.736-1383.834-717.07Z" transform="translate(-23.323 -292.526)" fill="#577581"/>
    <path d="M-1240.123-1163.506c1.724-.891,3.139,0,4.6.765a15.1,15.1,0,0,0,1.737.662q-.056.869-.112,1.736l-.819.945-.006,0-2.66.363-3.606-.068c-.235-.129-.6-.427-.686-.36-.8.6-1.549,1.259-2.314,1.9l-.61-.921.665-.583.239-.189.927-.634v-2.786c.566-1.216,1.567-.925,2.541-.739C-1240.2-1163.408-1240.16-1163.473-1240.123-1163.506Z" transform="translate(-106.847 -24.995)" fill="#506b79"/>
    <path d="M-1421.94-920.031a15.754,15.754,0,0,0,6.629,10.017c-.861.936.414,1.85.028,2.78-1.9-1.244-3.786-2.5-5.693-3.727-.489-.314-1.031-.545-1.549-.815q-.093-3.74-.187-7.479Z" transform="translate(0 -171.279)" fill="#967251"/>
    <path d="M-1304.491-573.587l-1.168,2.719a9.984,9.984,0,0,1-.549,1.047c-.8,1.172-1.618,2.329-2.43,3.491q.011.266.022.532a53.04,53.04,0,0,1-5.68-2.368c-2.623-1.449-5.1-3.169-7.636-4.773,1.477.677,2.961,1.339,4.428,2.036,1.01.48,1.948,1.478,3.116.313l.454.721c.2.27.364.728.61.778a14.9,14.9,0,0,0,2.784.329c2.622.034,3.455-1.088,2.77-3.631.367-.606.625-1.572,1.129-1.726C-1306.034-574.3-1305.217-573.795-1304.491-573.587Z" transform="translate(-60.458 -378.769)" fill="#7793a0"/>
    <path d="M-1200.828-621.5l-2.121.608-6.622-11.528v-3.042l.453-.1c.484.877.932,1.775,1.467,2.619a5.648,5.648,0,0,0,.979.945l1.337,1.922,2.4,4.416Z" transform="translate(-127.863 -341.932)" fill="#415d6c"/>
    <path d="M-1387.247-698.3c.084.429.044.961.289,1.257s.992.569,1.134.438c.815-.754,1.515-1.632,2.253-2.468l1.211,6.564c-2.664-1.569-5.4-3.031-7.957-4.758a13.941,13.941,0,0,1-2.5-2.986l.4-2.144a8.019,8.019,0,0,0,.939.937,3.207,3.207,0,0,0,.937.286l.954.905Z" transform="translate(-17.932 -301.839)" fill="#506b79"/>
    <path d="M-1053.952-684.333c-1.021.112-.719-.6-.58-1.052a51.54,51.54,0,0,1,1.72-5.1c.99-2.31.323-3.327-1.378-4.584a21.532,21.532,0,0,0-3.027-1.594q-.02-.591-.042-1.182a9.079,9.079,0,0,1,6.254,2.547,4.951,4.951,0,0,1,.669,1.606A23.375,23.375,0,0,1-1053.952-684.333Z" transform="translate(-219.236 -304.57)" fill="#465760"/>
    <path d="M-1408.276-695.539c-.552.447-1.105.891-1.654,1.341-2.135,1.754-2.347,2.439-1.425,5.023a18.645,18.645,0,0,0,.974,1.985,22.526,22.526,0,0,1,.611,2.3,7.206,7.206,0,0,1-.077,1.574c-.461-.36-1.1-.624-1.35-1.1-.806-1.543-1.465-3.163-2.192-4.748a2.476,2.476,0,0,0-.355-.455C-1414.8-693.522-1412.561-695.95-1408.276-695.539Z" transform="translate(-5.224 -305.924)" fill="#465760"/>
    <path d="M-1237.378-1183.245c-.037.032-.079.1-.108.092-.974-.186-1.975-.476-2.541.739.839-3.489,1.639-6.988,2.535-10.463.343-1.331.9-2.6,1.364-3.905-.034,1.961.061,3.935-.132,5.88C-1236.516-1188.337-1237-1185.8-1237.378-1183.245Z" transform="translate(-109.592 -5.256)" fill="#658390"/>
    <path d="M-1057.623-678.106a23.376,23.376,0,0,0,3.616-9.356,5.645,5.645,0,0,1,.209,1.739,47.61,47.61,0,0,1-9.32,20.247c-.054.069-.172.088-.26.129.034-.746.069-1.492.106-2.294a4.155,4.155,0,0,0,2.693-3.014c.15-.476.892-.744,1.11-1.223a44.2,44.2,0,0,0,1.7-4.341A7.658,7.658,0,0,0-1057.623-678.106Z" transform="translate(-215.565 -310.797)" fill="#60808d"/>
    <path d="M-1068.666-700.933q-.31-.916-.619-1.831c.1-.679.19-1.362.313-2.037.222-1.229.466-2.455.7-3.683,1.671.832,3.1,1.858,3.215,3.957-.73.963-1.411,1.969-2.214,2.866A4.552,4.552,0,0,1-1068.666-700.933Z" transform="translate(-212.021 -298.186)" fill="#465760"/>
    <path d="M-1168.675-561.014c-.365-.612-.735-1.222-1.094-1.837-.266-.455-.519-.917-.776-1.378q.176-.492.353-.981c.767,1.554,2.132,1.748,3.612,1.488,1.308-.23,2.591-.6,3.885-.909l3.364-1.117C-1162.228-563.741-1165.1-561.68-1168.675-561.014Z" transform="translate(-151.275 -383.813)" fill="#869fac"/>
    <path d="M-1071.918-710.548c-.234,1.227-.478,2.453-.7,3.683-.122.676-.209,1.358-.312,2.037l-2.179.491c-.074-.6-.159-1.19-.22-1.786a5.112,5.112,0,0,1,1.748-4.52,4,4,0,0,0,.622-1.282Z" transform="translate(-208.375 -296.122)" fill="#593b2f"/>
    <path d="M-1288.706-561.4c.812-1.162,1.633-2.319,2.43-3.491a10.007,10.007,0,0,0,.549-1.047l1.489,1.531-1.467,2.991a2.674,2.674,0,0,1-.288.028Z" transform="translate(-80.39 -383.702)" fill="#465760"/>
    <path d="M-1421.94-930.841l-.772.777a15.375,15.375,0,0,1,1.3-3.79,23.442,23.442,0,0,1,3.51-3.763c.325-.309.955-.3,1.446-.433a5.948,5.948,0,0,1-1.144,1.52C-1419.693-935.106-1420.674-932.872-1421.94-930.841Z" transform="translate(0 -160.469)" fill="#e1c68e"/>
    <path d="M-1078.067-722.709c.093-.212.323-.541.257-.62-.855-1.015-1.752-1.994-2.638-2.982l.578-.9c.7.1,1.4.2,2.1.256,0,.091-.01.153.014.179a1.777,1.777,0,0,0,.211.178,3.324,3.324,0,0,0-.224-.358c0-.254,0-.553,0-.853l0,0,.6,0h0l.781.961q-.058.855-.116,1.71c-1.054.585-.8,1.576-.808,2.5,0,.236-.222.47-.342.7l-.415-.782Z" transform="translate(-205.324 -286.594)" fill="#577581"/>
    <path d="M-1388.982-704.306l-.954-.905a3.207,3.207,0,0,1-.937-.286,8.023,8.023,0,0,1-.939-.937l3.4-2.7.314,1.27C-1389.783-707.025-1389.144-705.606-1388.982-704.306Z" transform="translate(-18.537 -297.798)" fill="#465760"/>
    <path d="M-1072.363-735.041l-.781-.961.067-.123-.068.122-.6,0a23.6,23.6,0,0,0,.578-2.328c.1-.7-.156-1.428.9-1.719.36-.1.52-.926.772-1.421Q-1071.924-738.257-1072.363-735.041Z" transform="translate(-209.348 -278.396)" fill="#51707f"/>
    <path d="M-1231.986-682.841l.384,1.5-1.286,3.031-.553-.034Q-1232.713-680.593-1231.986-682.841Z" transform="translate(-113.544 -313.569)" fill="#506b79"/>
    <path d="M-1068.983-946.711l.312,2.32q.27,1.664.538,3.33c-.386-.6-1.025-1.177-1.1-1.819a30.021,30.021,0,0,1-.009-3.994Z" transform="translate(-212.003 -155.176)" fill="#577581"/>
    <path d="M-1257.745-610.634a5.186,5.186,0,0,1,2.389-4.466Z" transform="translate(-98.946 -354.207)" fill="#465760"/>
    <path d="M-1265.448-595.835c.6-1.79.5-3.926,2.5-5.021Z" transform="translate(-94.343 -362.752)" fill="#465760"/>
    <path d="M-1247.756-627.713c-.187-1.335.945-3.5,1.993-3.815Z" transform="translate(-104.944 -344.352)" fill="#465760"/>
    <path d="M-1090.146-608.782c-.2-1.766,1.619-1.885,2.349-2.891l.028.021.238.472Z" transform="translate(-199.497 -356.263)" fill="#506b79"/>
    <path d="M-1281.2-559.115l1.467-2.991h.316l.074.011C-1279.8-561-1279.238-559.269-1281.2-559.115Z" transform="translate(-84.891 -385.998)" fill="#593b2f"/>
    <path d="M-1076.717-620.1l1.866-2.149Z" transform="translate(-207.562 -349.921)" fill="#60808d"/>
    <path d="M-1219.905-1154.1l.819-.945,1.608,1.252Z" transform="translate(-121.664 -30.296)" fill="#adc5ce"/>
    <path d="M-1288.706-554.591l2.714.012-2.693.52Q-1288.7-554.325-1288.706-554.591Z" transform="translate(-80.39 -390.506)" fill="#593b2f"/>
    <path d="M-1250.5-619.953c-.083-.8-.184-1.612,1-1.638Z" transform="translate(-103.285 -350.313)" fill="#465760"/>
    <path d="M-1069.264-626.931l.94-1.169Z" transform="translate(-212.033 -346.408)" fill="#60808d"/>
    <path d="M-1387-946.857l-.043-.6.436-.587C-1385.8-947.335-1386.17-947.02-1387-946.857Z" transform="translate(-21.4 -154.477)" fill="#506b79"/>
    <path d="M-1055.839-854.136l.026-1.787Z" transform="translate(-220.087 -209.737)" fill="#577581"/>
    <path d="M-1268.286-584.139c-.188-.485-.718-1.12.443-1.019Z" transform="translate(-92.469 -372.163)" fill="#465760"/>
    <path d="M-1266.76-587.105l.539-1.258Z" transform="translate(-93.556 -370.246)" fill="#465760"/>
    <path d="M-1242.7-633.4l.59-1.155Z" transform="translate(-107.99 -342.537)" fill="#465760"/>
    <path d="M-1065.3-631.188l.709-.809Z" transform="translate(-214.414 -344.07)" fill="#60808d"/>
    <path d="M-1083.942-611.2l-.238-.472.789-.032Z" transform="translate(-203.085 -356.246)" fill="#60808d"/>
    <path d="M-1251.69-616.581l.516-.943Z" transform="translate(-102.596 -352.753)" fill="#465760"/>
    <path d="M-1070.744-624.555l.586-.607Z" transform="translate(-211.146 -348.171)" fill="#60808d"/>
    <path d="M-1276.675-563.1l-.074-.011.38-.675Z" transform="translate(-87.563 -384.987)" fill="#465760"/>
    <path d="M-1259.152-601.783q.144-.283.288-.566Z" transform="translate(-98.12 -361.856)" fill="#465760"/>
    <path d="M-1258.366-603.3q.134-.289.27-.577Z" transform="translate(-98.591 -360.936)" fill="#465760"/>
    <path d="M-1135.981-570.206l.325-.232Z" transform="translate(-172.01 -381)" fill="#869fac"/>
    <path d="M-1138.031-569.087l.374-.229Z" transform="translate(-170.78 -381.673)" fill="#869fac"/>
    <path d="M-1140.491-567.263l.3-.222Z" transform="translate(-169.305 -382.771)" fill="#869fac"/>
    <path d="M-1142.494-566.143l.354-.241Z" transform="translate(-168.103 -383.432)" fill="#869fac"/>
    <path d="M-1241.226-635.266l.253-.437Z" transform="translate(-108.873 -341.847)" fill="#465760"/>
    <path d="M-1242.7-1152.324l-.239.189Z" transform="translate(-107.843 -31.926)" fill="#60808d"/>
    <path d="M-1325.6-1020.564l.839-3.031h.316l2.117.953c.421-2.032.806-3.892,1.191-5.751a19.2,19.2,0,0,0,.792-1.933c1.554-5.326,2.987-10.689,4.645-15.983,1.881-6,3.891-11.97,5.972-17.908,1.363-3.889,2.951-7.7,4.439-11.547l3.652-9a18.742,18.742,0,0,0,1.2-1.854c1.121-2.262,2.191-4.55,3.28-6.827l.624,1.521-.916,1.783-.3.307a5.89,5.89,0,0,1-.17,1.423c-.627,1.667-1.319,3.309-1.987,4.96-2.534,6.26-5.212,12.467-7.558,18.8-2.016,5.441-3.8,10.981-5.418,16.555-1.755,6.041-3.236,12.163-4.744,18.272a4.251,4.251,0,0,0,.256,2.662c2.216,4.57,5.836,7.843,10.077,10.5a18.065,18.065,0,0,0,8.341,2.7c-.212.37-.336.878-.654,1.085a36.146,36.146,0,0,0-3.448,2.085c-.429.353-.342,1.334-.489,2.029,1.4.27.906,1.374.984,2.227-1.6-.238-3.208-.473-4.81-.717-3.661-.559-7.329-1.077-10.979-1.706-1.454-.25-2.864-.751-4.295-1.137.211-2.491.422-4.981.617-7.283a5.64,5.64,0,0,1-1.433.242c-.924-.092-1.836-.309-2.752-.474l-.01-.009-.011-.555Z" transform="translate(-57.875 -67.249)" fill="#869fac"/>
    <path d="M-1357.917-981.922q-.318,1.193-.636,2.385l-1.211.288a4.452,4.452,0,0,1-1.043-.039c-3.95-1.1-7.974-2.013-11.571-4.089a23.078,23.078,0,0,1-6.458-5.164c-1.242-1.5-1.746-2.8-.709-4.5q.005-.146.007-.293l2.4-5.4c1.039-2.39,2.061-4.788,3.122-7.168,1.023-2.294,2-4.614,3.151-6.843,2.391-4.635,4.869-9.225,7.346-13.815.467-.866,1.1-1.644,1.652-2.463.082.214.3.514.227.631-1.331,2.123-1.143,4.488-1.1,6.82.016.9-.643,1.5-.866,2.164a20.415,20.415,0,0,0-1.355,5.452c-.075,2.131.344,2.146-1.551,2.423a44.623,44.623,0,0,0-2.818,5.521c-1.064,3.03-3.1,6.005-1.206,9.465a8.341,8.341,0,0,1,.4,1.875c.331,1.274.707,2.536,1.053,3.806.4,1.454-.042,2.132-1.586,2.49a4.375,4.375,0,0,0,2.841,3.163,41.4,41.4,0,0,1,3.955,1.682,21.528,21.528,0,0,0,2.7.966C-1360.11-982.287-1359.006-982.132-1357.917-981.922Z" transform="translate(-25.561 -105.891)" fill="#658390"/>
    <path d="M-1273.221-1150.961c.765-.643,1.515-1.3,2.314-1.9.089-.067.451.232.686.36-.179.763-.325,1.536-.543,2.288-.506,1.745-1.046,3.479-1.572,5.218-1.212,2.829-2.4,5.669-3.642,8.484-2.464,5.577-4.96,11.14-7.443,16.709l-3,7.491c-.451.919-.959,1.816-1.343,2.763-1.08,2.667-2.109,5.354-3.158,8.034-.156-.272-.483-.576-.439-.81.284-1.514.662-3.01.984-4.517.334-1.567-.353-2.287-1.96-2.272-.326,0-.656-.537-.985-.827.289-.577.618-1.138.861-1.734,1.19-2.917,2.252-5.891,3.556-8.754,2.223-4.88,4.464-9.759,6.937-14.514,2.763-5.312,5.792-10.485,8.7-15.721A.894.894,0,0,0-1273.221-1150.961Z" transform="translate(-77.62 -31.597)" fill="#7a97a3"/>
    <path d="M-1331.022-978.426h-.316c-1.835-.629-3.625-1.408-4.526-3.239-.631-1.283-1.413-2.745-1.327-4.075a50.513,50.513,0,0,1,1.438-7.687c.06-.267.736-.4,1.126-.589.42,1.052.783,2.133,1.289,3.143.2.406.719.655,1.093.976a4.923,4.923,0,0,0,.576-1.369c.2-2.208.321-4.423.47-6.635.151-.193.318-.375.451-.58,3.751-5.78,5.884-12.3,8.5-18.6l2.515-1.069c-.123.427-.235.813-.427,1.482l1.762-1.3a3.972,3.972,0,0,1-.116.733c-1.615,4.536-3.319,9.041-4.84,13.608-2.025,6.079-3.909,12.206-5.854,18.312Z" transform="translate(-51.3 -112.417)" fill="#76909c"/>
    <path d="M-1317.539-1032.354c-2.618,6.3-4.751,12.82-8.5,18.6-.133.2-.3.387-.452.58l-1.036.579-.439-1.3-.482,1.154-.9-1.374c1-2.645,1.786-5.394,3.036-7.914,2.89-5.825,6.013-11.533,9.02-17.3.732-1.4,1.379-2.853,2.065-4.28Q-1316.385-1037.98-1317.539-1032.354Z" transform="translate(-56.006 -97.144)" fill="#adc5ce"/>
    <path d="M-1299.825-1033.533q1.154-5.626,2.308-11.255l.294-.786c.328.289.659.829.985.826,1.607-.015,2.295.706,1.96,2.272-.322,1.507-.7,3-.983,4.517-.044.234.284.538.439.81l-.6,1.5-.575,1.214.018.018-1.762,1.3.427-1.482Z" transform="translate(-73.72 -95.965)" fill="#7f99a6"/>
    <path d="M-1330.578-969.894l.9,1.374.482-1.154.439,1.3,1.036-.579c-.148,2.212-.269,4.427-.469,6.635a4.927,4.927,0,0,1-.576,1.369c-.374-.32-.89-.57-1.093-.976-.506-1.01-.869-2.091-1.289-3.143A6.086,6.086,0,0,1-1330.578-969.894Z" transform="translate(-54.782 -141.366)" fill="#cfe6ef"/>
    <path d="M-1351.49-947.551a5.081,5.081,0,0,1,.544,1.443c0,.216-.414.428-.642.642-.255-.312-.645-.6-.716-.947C-1352.351-946.64-1351.932-946.963-1351.49-947.551Z" transform="translate(-42.236 -154.769)" fill="#658390"/>
    <path d="M-1353.45-837.574a6.405,6.405,0,0,1,1.914-.927c2.208-.239,2.625-.747,2.194-3.209l-1.751-.279-.005-.3,1.035-.153c.968.2,1.927.458,2.9.579,6.669.822,13.328,1.775,20.019,2.364,5.232.461,10.505.448,15.759.673a9.039,9.039,0,0,1,1.589.353c.08.724.206,1.448.231,2.175q.287,8.328.541,16.656c-.059,1.913-.121,3.825-.159,5.738,0,.069.24.142.369.214q.038,3.012.076,6.024c-2.383.441-3.189,2.211-3.417,4.642-.771-1.023.139-2.649-1.63-2.547q0-4.681,0-9.361c-.006-2.88-.014-2.872-2.737-3.881-1.517-.562-3.023-1.154-4.395-1.68l-.659,1.729c-.8-.272-1.553-1.125-2.452-.2-.841-.308-1.68-.621-2.523-.925-8.7-3.14-17.215-6.851-26.463-8.217-1-.148-2-.368-3.239-.6a26.246,26.246,0,0,0,7.428,13.394l.917,2.452-2.756-.5h0l-1.206-.3-2.942-2.712c-1.919-2.944-4.046-5.782-4.8-9.323-.505-2.367-1.048-4.728-1.466-7.111-.234-1.336-.246-2.711-.369-4.186l1.182.273c2.923,3.4,6.906,4.944,11.01,6.258,2.889.925,5.829,1.7,8.688,2.7,5.764,2.032,11.487,4.181,17.231,6.27a8.26,8.26,0,0,0,1.185.229,22.881,22.881,0,0,1-.532-2.514,2.429,2.429,0,0,0-2.038-2.332c-1.989-.594-3.891-1.476-5.828-2.244q-9.09-3.6-18.176-7.215C-1350.315-836.193-1351.876-836.9-1353.45-837.574Zm34.864,4.423a2.389,2.389,0,0,0-2.144,2.545,1.737,1.737,0,0,0,1.742,1.977,2.29,2.29,0,0,0,2.5-1.776A2.416,2.416,0,0,0-1318.586-833.15Z" transform="translate(-36.753 -217.827)" fill="#7793a0"/>
    <path d="M-1381.082-783.435q-.606-3.282-1.211-6.564c-.4-2.433-.8-4.867-1.215-7.3a4.426,4.426,0,0,0-.3-.8c-.588-4.056-1.187-8.111-1.762-12.169q-1.358-9.579-2.693-19.161c-.2-1.452-.414-2.9-.621-4.353-.589-5.506-1.2-11.01-1.75-16.52-.117-1.169-.017-2.36-.017-3.54l.443-.13,5.819,17.8.3.892q.011.292.021.584l.568.625.3.9c-1.417.058-.839.87-.578,1.548a111.766,111.766,0,0,1,5.033,17.536c1.1,5.337,1.97,10.723,3.124,16.048,1.348,6.223,2.661,12.432,2.317,18.854Z" transform="translate(-19.211 -210.91)" fill="#415d6c"/>
    <path d="M-1363.436-747.993c.344-6.423-.969-12.632-2.317-18.854-1.154-5.325-2.023-10.71-3.124-16.048a111.734,111.734,0,0,0-5.033-17.536c-.26-.678-.838-1.49.578-1.548,1.989,3.677,3.9,7.4,6.017,11a14.364,14.364,0,0,0,2.787,2.695q.552,1.086,1.105,2.169a6.293,6.293,0,0,0,.129,1.175c1.409,4.649,2.75,9.321,4.282,13.929,2.083,6.261,4.381,12.45,6.457,18.712a19.327,19.327,0,0,1,.808,10.276,36.012,36.012,0,0,1-4.543-1.718C-1358.733-745.04-1361.06-746.563-1363.436-747.993Z" transform="translate(-29.073 -242.098)" fill="#577581"/>
    <path d="M-1393.809-874.577c3.157,1.045,6.311,2.1,9.476,3.122a5.536,5.536,0,0,0,1.326.141c.663.043,1.446-.2,1.637.83.027.147.366.289.583.34,1.945.463,3.884.959,5.846,1.34,2.183.424,4.39.729,6.583,1.1q4.665.795,9.325,1.615c.146.026.285.109.43.121,2.591.22,5.182.453,7.775.645q8.156.6,16.315,1.159c1.341.089,2.694-.008,4.036.07a3.933,3.933,0,0,1,1.222.526c-4.88.216-9.773.283-14.632.722a7,7,0,0,0-5.209,2.594c-.931-.089-1.863-.17-2.794-.268-3.527-.369-7.057-.716-10.579-1.123-2.346-.271-4.682-.631-7.021-.951-2.466-.521-4.966-.919-7.391-1.588-4.213-1.162-8.393-2.452-12.558-3.775a9.718,9.718,0,0,1-3.3-1.645,4.487,4.487,0,0,1-.97-2.438A14.692,14.692,0,0,1-1393.809-874.577Z" transform="translate(-17.335 -198.547)" fill="#465760"/>
    <path d="M-1355.4-835.316c1.574.674,3.135,1.381,4.724,2.015q9.08,3.627,18.176,7.215c1.936.767,3.839,1.65,5.828,2.244a2.428,2.428,0,0,1,2.038,2.332A22.853,22.853,0,0,0-1324.1-819a8.272,8.272,0,0,1-1.185-.229c-5.744-2.089-11.466-4.239-17.231-6.27-2.858-1.007-5.8-1.778-8.688-2.7-4.1-1.314-8.087-2.859-11.01-6.258-.308-.414-.53-1.026-.94-1.206a2.359,2.359,0,0,1-1.45-3.012c2.446,1,4.883,2.016,7.343,2.976A10.827,10.827,0,0,0-1355.4-835.316Z" transform="translate(-34.8 -220.085)" fill="#aac1cb"/>
    <path d="M-1365.843-838.907a2.358,2.358,0,0,0,1.449,3.012c.411.18.632.792.94,1.206l-1.182-.273c.122,1.475.134,2.85.369,4.186.418,2.383.961,4.744,1.466,7.111.755,3.541,2.883,6.379,4.8,9.324-1.454-.047-.4,1.29-.96,1.855l1.324-.072a6.376,6.376,0,0,1,2.666,4.127l.4-.868.515.353-.759,1.946c.13.512.239.945.349,1.378l-4.463-2.735q-.553-1.084-1.105-2.169c-.954-3.484-2.026-6.941-2.837-10.458-1.376-5.972-2.587-11.983-3.889-18.077Z" transform="translate(-33.565 -219.851)" fill="#adc5ce"/>
    <path d="M-1333.019-844.62c2.34.32,4.676.679,7.021.951,3.522.407,7.052.755,10.579,1.123.93.1,1.863.179,2.794.268,1.2.017,2.393,0,3.586.057,5.5.275,10.992.572,16.488.861l.34.036q-.012.741-.024,1.483l-.5.062a9.064,9.064,0,0,0-1.589-.353c-5.254-.224-10.527-.212-15.759-.673-6.691-.589-13.35-1.542-20.019-2.364-.977-.12-1.937-.383-2.9-.579Q-1333.015-844.183-1333.019-844.62Z" transform="translate(-53.807 -216.518)" fill="#60808d"/>
    <path d="M-1374.636-808.58q-.151-.446-.3-.892Z" transform="translate(-28.66 -237.603)" fill="#577581"/>
    <path d="M-1373.564-805.158l-.568-.625Z" transform="translate(-29.143 -239.816)" fill="#577581"/>
    <path d="M-1404.643-892.215c.387-.931-.889-1.844-.028-2.78,4.262,1.684,8.43,3.69,12.808,4.978,6.763,1.989,13.669,3.487,20.515,5.194,6.156.716,12.3,1.532,18.473,2.109,3.4.318,6.841.332,10.263.311,6.827-.041,13.672.076,20.474-.39s13.531-1.567,20.293-2.389c.453,1.82-.924,2.828-1.8,4.059A37.841,37.841,0,0,1-1308.67-880c-4.6.413-9.218.733-13.836.922-5.078.207-10.164.248-15.247.318-3.082.042-6.172.141-9.245-.032-4.557-.258-9.1-.837-13.654-1.094-7.232-.409-14.2-2.266-21.24-3.708a75.491,75.491,0,0,1-21.682-7.824A9.81,9.81,0,0,1-1404.643-892.215Z" transform="translate(-10.64 -186.298)" fill="#876548"/>
    <path d="M-1261.974-842.819c-5.5-.289-10.992-.587-16.488-.861-1.193-.06-2.39-.04-3.586-.057a7,7,0,0,1,5.209-2.594c4.859-.439,9.752-.506,14.632-.722l.2.014Q-1261.988-844.93-1261.974-842.819Z" transform="translate(-84.384 -215.057)" fill="#415d6c"/>
    <path d="M-1231.589-847.71l-.3.281Z" transform="translate(-114.474 -214.664)" fill="#415d6c"/>
    <path d="M-1155.123-719.294c-.289-.056-.718-.009-.846-.183-1.182-1.609-2.814-.217-4.165-.643-.067-.021-.258.352-.391.542a2.279,2.279,0,0,0-.3,0c-.7-1.786-1.5-3.541-2.079-5.364-1.345-4.2-2.563-8.444-3.893-12.65a12.347,12.347,0,0,0-1.164-2.138q-.206-.969-.41-1.939a3.782,3.782,0,0,0,2.146-3.629c.085-1.472-1.078-1.864-2.162-2.285l-.507-.783-.027.016.525-.1a5.167,5.167,0,0,0,1.149-.248c4.509-2.114,9.082-4.11,13.484-6.428,3.1-1.635,5.971-3.722,8.953-5.591.528-.331,1.1-.585,1.656-.875-.308,1.243-.57,2.5-.936,3.724-.65,2.175-1.363,4.331-2.05,6.5-.88,2.255-1.768,4.508-2.638,6.767-1.415,3.679-3.057,7.293-4.163,11.063C-1154.291-728.921-1155.744-724.248-1155.123-719.294Z" transform="translate(-152.252 -266.326)" fill="#76909c"/>
    <path d="M-1196.581-630.669l-2.4-4.416a9.978,9.978,0,0,0,.844-1.11c.282-.5.352-1.209.752-1.512.313-.237.993.054,1.5.025a8.042,8.042,0,0,0,1.254-.265c1.871,1.793,3.414,2.089,4.989.956l1.177-1.215c2.12.4,3.388-.569,4.127-2.491a1.287,1.287,0,0,1,1.869-.9,2.951,2.951,0,0,0,1.562-.243c1.688-.47,3.366-.973,5.047-1.463l.068.124.055-.056-.123-.068.633-.61a39.026,39.026,0,0,0,4.231,2.264,17.007,17.007,0,0,0,14.312-.407l5.142-1.272.3.413-4.225,4.13a64.553,64.553,0,0,0-16.148,10.825c-1.409,1.309-3.012,2.409-4.527,3.6l-2.931-3.382a1.87,1.87,0,0,0-.339.481c-.462,1.708-.972,1.915-2.434,1.065-.283-.164-.727-.051-1.1-.065,1.216-3.792-.248-5.875-3.635-5.174a4.772,4.772,0,0,0-1.039-.823,41.883,41.883,0,0,1-4.623-1.842c-1.085-.61-1.422-.462-1.769.625-.134.419-.616.729-.946,1.081C-1195.493-631.811-1196.038-631.241-1196.581-630.669Zm15.377,4.075.2-.253-.593-.471-.2.252Zm5.229.3c-.081-.036-.181-.117-.239-.094s-.077.15-.112.232c.081.036.181.117.239.094S-1176.011-626.21-1175.975-626.292Z" transform="translate(-134.215 -336.924)" fill="#90abb5"/>
    <path d="M-1134.662-718.832c-.62-4.954.833-9.627,2.189-14.25,1.106-3.771,2.748-7.384,4.164-11.063.869-2.259,1.758-4.511,2.638-6.767l2.833-.307c-.307-.763-1.1-1.787-.853-2.379.26-.623,1.511-.834,2.216-1.171l3.043-6.056a8.092,8.092,0,0,0,.313,2.019,5.673,5.673,0,0,0,1.149,1.3,4.385,4.385,0,0,1-.059.891c-1.72,6.286-3.478,12.562-5.172,18.854-.9,3.345-1.77,6.7-2.5,10.087a18.751,18.751,0,0,0-.067,3.742c-2.83,1.928-5.646,3.881-8.5,5.768C-1133.931-717.721-1134.633-717.71-1134.662-718.832Z" transform="translate(-172.712 -266.787)" fill="#577581"/>
    <path d="M-1109.807-730.6a18.768,18.768,0,0,1,.067-3.742c.729-3.385,1.6-6.742,2.5-10.087,1.694-6.293,3.452-12.568,5.172-18.854a4.4,4.4,0,0,0,.059-.891l.315-1.191a5.356,5.356,0,0,1,1.011-.566,3.053,3.053,0,0,0,2.3-3.224,4.465,4.465,0,0,1,.6-2.074c.217-.369.861-.487,1.313-.717a6.911,6.911,0,0,1,.571,1.24c.212.865.335,1.752.495,2.63-.368,2.738-.731,5.476-1.106,8.213-.228,1.662-.474,3.322-.711,4.982l-.294,1.2-.579.9c-.929,3.728-1.8,7.471-2.811,11.178-.5,1.844-1.26,3.619-1.87,5.435a17.005,17.005,0,0,0-.4,1.714Z" transform="translate(-187.672 -260.116)" fill="#415d6c"/>
    <path d="M-1167.663-656.889c-1.682.49-3.36.993-5.047,1.463a2.949,2.949,0,0,1-1.562.243,1.287,1.287,0,0,0-1.869.9c-.739,1.922-2.007,2.893-4.127,2.491a8.026,8.026,0,0,0,.181-1.009c.089-1.637-.039-3.228-1.329-4.443-1.049-.989-1.727-.89-2.368.285l-1.541.689c.124-.4.227-.808.376-1.2.176-.458.639-.969.539-1.338a2.025,2.025,0,0,1,.462-2.109c.938-1.138,2.449-2.117,1.677-4.083-.117-.3.741-1.411,1.108-1.392,1.426.075,3.077-.809,4.271.85.208.288,1.174.07,1.782.014a2.748,2.748,0,0,0,.779-.29c.884,1.416,1.67,2.712,2.508,3.973.125.188.492.215.748.316l.411-1.042a2.27,2.27,0,0,1,.3,0l3.339,5.07Zm-1.069-1.52c-.173.21-.364.342-.352.451a.529.529,0,0,0,.3.384c.1.028.367-.164.37-.263C-1168.408-657.985-1168.57-658.139-1168.733-658.408Z" transform="translate(-142.409 -323.335)" fill="#99b2bd"/>
    <path d="M-1231.085-843.053q.011-.742.024-1.483c5.316-.212,10.654-.189,15.941-.7,6.352-.61,12.673-1.588,18.983-2.571,3.416-.532,6.777-1.412,10.166-2.12a6.508,6.508,0,0,1,1.045-.051c.026.614-.974,1.235.013,1.841-.947.256-1.884.558-2.842.761a126.384,126.384,0,0,1-20.839,3.156,21.988,21.988,0,0,0-3.925.882l-16.181.257-1.188.016Z" transform="translate(-114.957 -213.305)" fill="#7a97a3"/>
    <path d="M-1076.679-864.977l.944,1.53-1.24,2.994-.212-1.038a12.7,12.7,0,0,0-1.216.827c-1.573,1.324-2.98,2.771-3.356,4.918a25.993,25.993,0,0,1-.663,3.485c-.454,1.408-1.125,2.746-1.7,4.113q.122-6.444.246-12.888l-.011-1.279Z" transform="translate(-203.118 -204.306)" fill="#7793a0"/>
    <path d="M-1103.479-858.324q.005.639.011,1.278l-3.9,1.742c-.565.144-1.129.3-1.7.432q-3.638.868-7.276,1.729c-.987-.607.013-1.228-.013-1.842Z" transform="translate(-183.53 -208.297)" fill="#7f99a6"/>
    <path d="M-1359.087-689.942a29.123,29.123,0,0,0,5.733.563,65.5,65.5,0,0,0,8.263-1.585,5.618,5.618,0,0,0,1.606-1.041c.452-.3.926-.574,1.354-.905,2.484-1.922,3.628-4.714,4.577-7.529,1.533-4.548,2.846-9.17,4.252-13.761,1.971,1.385,2.875,1.305,4.458-.345a1.383,1.383,0,0,1,.859-.5c1.69.119,1.749-1.06,1.892-2.225.064-.525.024-1.25.342-1.523a2.885,2.885,0,0,0,.784-3.148c-.325-1.207.262-1.767.887-2.568.929-1.192,2.12-1.107,3.361-1.075l-.9,10.793c-.595.768-1.226,1.511-1.777,2.309-1.293,1.876-2.921,3.635-3.712,5.71a23.235,23.235,0,0,0-1.052,6.821c-.165,2.781-.03,5.581-.048,8.372a2.626,2.626,0,0,1-.226,1.439,2.648,2.648,0,0,0-.188,3.274c-1.534,1.673-3.132,2.9-5.458,2.1-.113-.039-.279.115-.422.117a16.138,16.138,0,0,1-2.965-.025c-1.092-.192-1.859-.156-2.135,1.112a1.943,1.943,0,0,1-.542.955c-1.129,1.044-1.377,3.24-3.638,2.827-.029-.006-.089.056-.106.1q-.86,1.968-1.714,3.94a25.344,25.344,0,0,1-2.232-1.395c-4.062-3.137-8.1-6.306-12.146-9.464l.45-1.68-.1-.068Z" transform="translate(-37.634 -287.918)" fill="#9db7c1"/>
    <path d="M-1324.042-659.542q.856-1.97,1.714-3.94c.018-.042.077-.1.106-.1,2.26.413,2.509-1.783,3.638-2.827a1.941,1.941,0,0,0,.541-.955c.276-1.268,1.043-1.3,2.135-1.112a16.142,16.142,0,0,0,2.965.025c.142,0,.308-.156.422-.117,2.327.8,3.924-.425,5.458-2.1a2.648,2.648,0,0,1,.188-3.274,2.628,2.628,0,0,0,.226-1.439c.019-2.791-.117-5.59.048-8.372a23.221,23.221,0,0,1,1.051-6.82c.791-2.075,2.419-3.834,3.712-5.71.55-.8,1.182-1.541,1.777-2.309q.153,1.8.306,3.6a2.825,2.825,0,0,0-.566.571q-.639,1.188-1.2,2.417c-.819,1.789-2.011,3.52-2.331,5.4-.529,3.1-.475,6.3-.7,9.46a9.735,9.735,0,0,1-.383,1.52c-.078.324-.287.826-.158.944a2.052,2.052,0,0,0,1.027.27c.341.05.689.052,1.034.075l-1.244,1.257c-1.229,2.39-1.226,2.422.332,3.889a12.527,12.527,0,0,1-1.378,1.694c-1.2,1.054-2.482,2.018-3.73,3.02a3.117,3.117,0,0,0-3.136,1.827,3.535,3.535,0,0,0-.769,3.826c.561,1.274,1.413,2.3,3.02,2.228a7.122,7.122,0,0,1-1.055,1.387c-1.23.994-2.725,1.722-3.149,3.447a39.868,39.868,0,0,1-3.44-2.268C-1319.783-655.808-1321.894-657.7-1324.042-659.542Z" transform="translate(-59.192 -304.124)" fill="#99b2bd"/>
    <path d="M-1301.566-592.45c.424-1.725,1.918-2.453,3.149-3.447a7.12,7.12,0,0,0,1.055-1.387l1.813-2.42a1.811,1.811,0,0,1,2.009,1.6c.393,1.577,1.216,2.253,2.805,2.024l-2.444,7.16c-.726-.208-1.543-.715-2.15-.531-.5.153-.762,1.119-1.129,1.726a9.677,9.677,0,0,1-6.164,2.524l-.455-.721.011,0a.725.725,0,0,0,.117-.07,1.858,1.858,0,0,0-.109-.21,37.023,37.023,0,0,1,1.586-3.945A2.207,2.207,0,0,0-1301.566-592.45Z" transform="translate(-71.769 -363.432)" fill="#869fac"/>
    <path d="M-1367.746-640.236l-.54,1.588.1.068-.45,1.68-1.2-1.182c-.269-.1-.626-.114-.794-.3-1.269-1.423-2.5-2.878-3.777-4.36l3.982.771Z" transform="translate(-28.976 -337.624)" fill="#90abb5"/>
    <path d="M-1303.041-565.95a1.857,1.857,0,0,1,.109.21.721.721,0,0,1-.117.07Q-1303.048-565.81-1303.041-565.95Z" transform="translate(-71.786 -383.692)" fill="#7793a0"/>
    <path d="M-1192.979-616.484c.542-.572,1.088-1.142,1.627-1.717.33-.352.812-.663.946-1.081.348-1.087.684-1.235,1.769-.625a41.9,41.9,0,0,0,4.623,1.842,4.782,4.782,0,0,1,1.038.821l.245.449c-.677,1.307-1.517,2.6-.348,4.363l.872-1.958,1.583,1.219-2.1,2.207.891.508,1.187.528c.113.36.119.917.358,1.047,1.4.769,1.766,2.2,2.377,3.479-1.245,1.462-.61,2.714.265,4.109a22.134,22.134,0,0,1,1.493,3.631c-1.733-.133-3.675.587-5.092-.911-1.165-1.231-2.132-2.649-3.187-3.984l-.485.272,1.271,4.372-.353.981c-1.068-2.347-2.15-4.688-3.2-7.044-1.237-2.775-2.448-5.563-3.67-8.345Z" transform="translate(-137.817 -351.108)" fill="#7f99a6"/>
    <path d="M-1159.428-595.334c-.611-1.279-.974-2.71-2.377-3.479-.239-.131-.245-.687-.358-1.047h0l.9-.189-.649-.771,1.056-1.179c.37.014.814-.1,1.1.065,1.462.85,1.972.643,2.434-1.065a1.879,1.879,0,0,1,.338-.481l2.932,3.382Z" transform="translate(-156.303 -361.176)" fill="#869fac"/>
    <path d="M-1171.567-571.363l-1.271-4.372.485-.272c1.055,1.335,2.023,2.753,3.187,3.984,1.417,1.5,3.359.777,5.092.911,0,.109,0,.218,0,.327-1.294.308-2.577.679-3.885.909C-1169.435-569.615-1170.8-569.81-1171.567-571.363Z" transform="translate(-149.899 -377.659)" fill="#465760"/>
    <path d="M-1325.63-736.23c-1.406,4.591-2.719,9.213-4.252,13.761-.949,2.816-2.093,5.607-4.577,7.529-.428.331-.9.6-1.354.905-.572-.757-.814-1.4.037-2.251.368-.368.192-1.279.264-1.944a19.325,19.325,0,0,0-.808-10.276c-2.076-6.263-4.374-12.451-6.457-18.712-1.533-4.608-2.873-9.28-4.282-13.929a6.283,6.283,0,0,1-.129-1.176l4.463,2.735c1.061.806,2.1,1.646,3.189,2.414a79.368,79.368,0,0,0,15.6,8.736l-.129.392c-2.782,2.517-2.7,4.3.294,6.382Z" transform="translate(-45.307 -265.888)" fill="#76909c"/>
    <path d="M-1081.715-620.05l1.307-.9.345.538-1.344.749Z" transform="translate(-204.564 -350.697)" fill="#577581"/>
    <path d="M-1252.806-885.148c-6.762.823-13.506,1.923-20.293,2.389s-13.647.349-20.474.39c-3.421.021-6.861.006-10.263-.311-6.17-.577-12.317-1.393-18.473-2.109l.824-1.457-1.746-.831.584.078.347.14,1.167.089.933.212,10.718.958,11.118.9a5.519,5.519,0,0,0,1.011.192q9.271.037,18.542.038a5.772,5.772,0,0,0,1.147-.232l1.2-.035c2.418-.191,4.846-.292,7.251-.59,6.289-.778,12.567-1.642,18.849-2.472l7.821-1.683a4.154,4.154,0,0,0,.884-.114q7.071-2.5,14.132-5.024l.225-.2.3-.118a20.328,20.328,0,0,1-2.323,1.794c-.979.563-2.316.64-2.476,2.135-3.508,1.188-6.975,2.525-10.536,3.521C-1245.778-886.525-1249.313-885.914-1252.806-885.148Z" transform="translate(-59.679 -186.333)" fill="#e1c68e"/>
    <path d="M-1113.367-915.294q-7.065,2.516-14.132,5.024a4.156,4.156,0,0,1-.884.114l-1.847-.031v-2.434l-2.7-.846,2.233-1.187a20.522,20.522,0,0,0,2.734-.6c3.215-1.165,6.423-2.355,9.6-3.628,3.342-1.342,6.641-2.79,10.041-4.227-.223-.576-.4-1.027-.573-1.478.281-.3.764-.58.8-.911.112-.929-.01-1.886.068-2.822.03-.349.359-.674.551-1.01.206.322.569.635.59.968.073,1.187.028,2.381.028,3.572l.611,0q0-2.305,0-4.61c.188.3.548.6.538.891a12.442,12.442,0,0,0,1.2,6.267c.122.239.027.589.033.889a6.729,6.729,0,0,0-1.876.664c-2.2,1.643-4.335,3.376-6.494,5.076l-.3.118Z" transform="translate(-173.842 -165.659)" fill="#577581"/>
    <path d="M-1089.923-903.544c2.159-1.7,4.293-3.433,6.494-5.076a6.732,6.732,0,0,1,1.876-.664,4.075,4.075,0,0,1-.214,1.568c-2.04,3.274-5.287,5-8.664,6.5-1.393.619-2.858,1.074-4.291,1.6.16-1.495,1.5-1.572,2.476-2.135A20.316,20.316,0,0,0-1089.923-903.544Z" transform="translate(-196.761 -177.726)" fill="#cda66e"/>
    <path d="M-1174.942-1097.671a6.062,6.062,0,0,0,.5-1.367c.056-.469-.26-1.015-.125-1.434a7.208,7.208,0,0,1,.977-1.573l1.172.948c.142.116.283.234.683.565l-.486-1.963c.99,1.189,2.014,2.353,2.964,3.575,2.187,2.812,4.367,5.63,6.492,8.489,1.3,1.746,2.511,3.556,3.705,5.375a4.638,4.638,0,0,1,.373,1.411q-.637,1.554-1.271,3.108c-.4-.434-.775-.9-1.211-1.3-1.556-1.411-3.134-2.8-4.7-4.194h-.013l-.6-.6.005-.006-.272-.6c-1.85-2.259-3.723-4.5-5.539-6.783C-1173.228-1095.191-1174.062-1096.449-1174.942-1097.671Z" transform="translate(-148.637 -61.819)" fill="#869fac"/>
    <path d="M-1137.5-1052.272q.636-1.554,1.272-3.108a9.074,9.074,0,0,1,1.712,1.57c3.047,4.716,6.145,9.406,8.991,14.243,1.831,3.112,3.263,6.459,4.874,9.7-.655.817-1.112.635-1.226.031-.517.368-1.051.7-1.56,1.063-.3.216-.565.485-.846.731-.277-.575-.533-1.16-.836-1.721-.4-.739-.834-1.459-1.253-2.187C-1129.687-1038.937-1132.871-1046-1137.5-1052.272Zm1.831-1.8-.272.281.6.483.188-.2Z" transform="translate(-171.101 -90.083)" fill="#7a97a3"/>
    <path d="M-1104.46-989.785c.28-.246.544-.515.846-.731.509-.364,1.043-.694,1.56-1.063.115.6.572.786,1.226-.031q.132.463.263.926c1.4,4.45,2.813,8.9,4.194,13.355a14.194,14.194,0,0,1,.323,1.9l-1.526,1.7c-1.085-1.284-1.218-3.357-3.06-3.566l-1.705.1c-.2-2.25-.262-4.522-.627-6.744C-1103.292-985.917-1103.95-987.839-1104.46-989.785Z" transform="translate(-190.919 -128.339)" fill="#76909c"/>
    <path d="M-1363.782-916.015l-1.167-.088-.347-.141-.584-.078-12.3-2.5a4.822,4.822,0,0,0-.955-1.059c-1.454-.866-2.955-1.655-4.438-2.473a3.912,3.912,0,0,1,3.587,1.292c.354.313,1.123.158,1.7.216-.18-.619-.162-1.484-.574-1.815-2.438-1.962-5.378-3.069-8.161-4.415-2.147-1.039-4.482-1.689-6.733-2.512a6.19,6.19,0,0,1-.561-2.19c.259-1.915.735-3.8,1.146-5.694.165-.761.386-1.509.582-2.263l1.167-3.956c0,.959,0,1.918,0,3.352l3.343-1.512c-1.037,1.707-.533,3.006.709,4.5a23.079,23.079,0,0,0,6.458,5.164c3.6,2.076,7.621,2.99,11.571,4.089a4.438,4.438,0,0,0,1.043.039l1.222.267.009.009c-.351,1.689-.662,3.387-1.069,5.063-.214.879-.174,1.408.89,1.584,1.262.209,2.5.572,3.747.868,1.431.386,2.841.887,4.295,1.137,3.649.629,7.317,1.147,10.979,1.706,1.6.244,3.207.478,4.81.717l2.4.058c.09.544.18,1.088.289,1.744l-4.485-1.187c-.641,1.674-1.877,1.266-3.1,1.031-1.453-.28-2.919-.494-4.481-.753l.657.965-10.718-.957Z" transform="translate(-17.029 -157.086)" fill="#506b79"/>
    <path d="M-1377.5-953.324l-2.4,5.4c-.286-.377-.837-.774-.81-1.127a9.851,9.851,0,0,1,.708-3.705C-1379.756-953.245-1378.374-953.152-1377.5-953.324Z" transform="translate(-25.193 -151.306)" fill="#506b79"/>
    <path d="M-1399.342-933.8c-.2.754-.417,1.5-.582,2.263-.411,1.893-.887,3.779-1.146,5.694a6.2,6.2,0,0,0,.561,2.19q.011.434.022.867c-.1,2.427.823,3.36,2.689,2.714a9.831,9.831,0,0,1,1.075.4c2.136,1.076,4.263,2.168,6.392,3.255,1.483.818,2.984,1.607,4.438,2.473a4.831,4.831,0,0,1,.955,1.059c-3.086-.893-6.247-1.586-9.235-2.729a25.312,25.312,0,0,1-9.313-5.7c-2.682-2.742-2.8-5.838-.349-8.779C-1402.564-931.614-1401.432-933.282-1399.342-933.8Z" transform="translate(-10.273 -163.018)" fill="#967251"/>
    <path d="M-1213.794-1143.885a35.874,35.874,0,0,1,2.5,2.89c3.355,4.793,6.658,9.624,9.964,14.452a9.7,9.7,0,0,1,.647,1.332q-.167.752-.334,1.5c-.347-.02-.695-.065-1.041-.054-.495.016-.989.073-1.484.112a3.862,3.862,0,0,0,.469,1.327c.6.678.811,1.273.463,1.7l-1.963-1.59-.957-1.484-.558-1.516c-.156-.467-.281-.948-.472-1.4q-2.939-6.942-5.9-13.876l-1.445-2.713-.04-.559C-1213.893-1143.8-1213.845-1143.845-1213.794-1143.885Z" transform="translate(-125.242 -36.989)" fill="#d4ebf3"/>
    <path d="M-1228.675-1148.479q.723,1.356,1.446,2.713c-1.438.391-2.883,1.06-4.278-.093q-.087,1.24-.175,2.488l-.561-.872-.828-1.092c-.237,1.055-.442,1.965-.647,2.875-.195,1.046-.39,2.091-.613,3.286l-1.18-1.643c-1.059.546-1.492,2.177-3.056,1.343q.295-.9.59-1.8l4.211-11.049,2.66-.363.633.9c0,.105,0,.21.005.315l-.01-.013.291.915a6.394,6.394,0,0,0-.3,1.425,8.245,8.245,0,0,0,.306,1.569l-.068.124.069-.122Z" transform="translate(-110.469 -31.71)" fill="#adc5ce"/>
    <path d="M-1181.641-1095.709q.167-.751.334-1.5l2.347,2.711c.88,1.221,1.714,2.479,2.65,3.657,1.816,2.285,3.69,4.525,5.539,6.783q.135.3.272.6l-.005.007.6.6h.012c-.676.957-1.383.363-1.7-.186a2.039,2.039,0,0,0-2.191-.955c-.822.043-1.64.187-2.459.287l-2.1-5.689-.589-.607Z" transform="translate(-144.619 -64.988)" fill="#cfe6ef"/>
    <path d="M-1218.057-1148.756l-.291-.915q.954,1.158,1.909,2.316c-.049.04-.1.082-.145.124Z" transform="translate(-122.598 -33.518)" fill="#d4ebf3"/>
    <path d="M-1218.331-1150.11c0-.1,0-.21-.005-.315C-1218.334-1150.32-1218.332-1150.216-1218.331-1150.11Z" transform="translate(-122.605 -33.065)" fill="#d4ebf3"/>
    <path d="M-1120.281-955.739l1.705-.1c1.843.209,1.975,2.282,3.06,3.566l1.526-1.7c.6,2.077,1.154,4.168,1.8,6.23.768,2.443,1.615,4.861,2.428,7.29l.573,1.478c-3.4,1.437-6.7,2.885-10.041,4.227-3.173,1.273-6.382,2.463-9.6,3.628a20.594,20.594,0,0,1-2.735.6,2.1,2.1,0,0,1-.366-.639c-.44-2.817-.832-5.641-1.284-8.457-.351-2.186-.769-4.36-1.158-6.54.151-.192.282-.529.456-.553,1.079-.148,2.181-.156,3.253-.34,2.636-.453,5.065-1.348,6.794-3.557l3.262-4.234.289-.6Z" transform="translate(-172.979 -149.798)" fill="#7a97a3"/>
    <path d="M-1263.8-729.143q-.153-1.8-.306-3.6.45-5.4.9-10.794c.113-.829.188-1.666.346-2.486.19-.984.45-1.955.679-2.932.57.091,1.15.141,1.707.283.791.2.915-.245.928-.851l.99-.125-.261-1.035c.369-.019.612-.039.855-.042,2.549-.041,2.549-.041,2.574-2.7,1.769-.1.859,1.524,1.63,2.547.227-2.431,1.034-4.2,3.417-4.642q.07.888.139,1.776l-.053,1.514q.287,4.5.574,9,.093,3.462.186,6.925c-.161.207-.46.412-.463.621-.027,2.088-.006,4.176,0,6.265q-.213,1.488-.427,2.977-.729,2.248-1.456,4.5-.145.3-.288.593l-1.414-2.6c-.441-.518-.781-.372-1.022.6a8.289,8.289,0,0,0,.388,5.032v-.008l-.921.888,0,0a3.491,3.491,0,0,0-.222-1,5.468,5.468,0,0,1-.441-4.385c.3-1.071-.6-2.424-1.846-2.988-1.592-1.443-2.515-1.545-4.494-.563a15.826,15.826,0,0,1-1.634.605Q-1263.762-727.46-1263.8-729.143Z" transform="translate(-95.151 -269.969)" fill="#76909c"/>
    <path d="M-1271.089-681.287c1.246.564,2.147,1.917,1.847,2.988a5.467,5.467,0,0,0,.441,4.385,3.491,3.491,0,0,1,.222,1l-.068.126.069-.124.921-.888c-1.746,4.477-3.3,9.042-5.29,13.408-2.1,4.613-4.62,9.037-6.956,13.543-.2.394-.413.787-.62,1.181l-.332.655.014,0c-1.589.229-2.412-.447-2.805-2.024a1.811,1.811,0,0,0-2.009-1.6c.216-.388.426-.78.651-1.163,1.14-1.934.843-2.908-1.224-4l-.355-.3c1.248-1,2.528-1.966,3.73-3.02a12.49,12.49,0,0,0,1.378-1.694c2.035-.406,2.59-.927,2.7-2.539-.07-1.117.476-2.415-.921-3.144q.016-.165.03-.33a5.374,5.374,0,0,0,.865-1.44c.414-1.844.033-3.9,1.584-5.438.173-.171-.068-.756.105-.935.517-.535-.652-1.563.575-1.818,2.217.643,3.074.4,4.053-1.17l.587-.609.357-.243.234-.661.671-1.14C-1269.872-679.418-1270.623-680.331-1271.089-681.287Z" transform="translate(-81.664 -314.501)" fill="#7f99a6"/>
    <path d="M-1240.2-671.441a8.288,8.288,0,0,1-.388-5.032c.241-.967.581-1.113,1.022-.6l1.413,2.6Z" transform="translate(-109.116 -316.856)" fill="#7f99a6"/>
    <path d="M-1272.268-591.615l.332-.655Z" transform="translate(-90.251 -367.903)" fill="#869fac"/>
    <path d="M-1080.161-858.16l1.24-2.994a3.845,3.845,0,0,1,.535,1.336c-.04,2.228-.05,4.469-.305,6.679-.385,3.333-.965,6.643-1.462,9.963-.3,2.031-.62,4.059-.9,6.093-.466,3.371-.907,6.745-1.362,10.118q-.363,2.688-.734,5.375c-.16-.878-.283-1.765-.495-2.63a6.923,6.923,0,0,0-.571-1.24c-.452.23-1.1.348-1.313.717a4.466,4.466,0,0,0-.6,2.074,3.053,3.053,0,0,1-2.3,3.224,5.379,5.379,0,0,0-1.012.565c.861-3.244,1.712-6.491,2.588-9.732.92-3.4,1.971-6.775,2.772-10.206,1-4.291,1.816-8.626,2.692-12.946C-1080.956-853.891-1080.569-856.028-1080.161-858.16Z" transform="translate(-199.931 -206.599)" fill="#506b79"/>
    <path d="M-1079-728.374q.147-.6.294-1.2a1.233,1.233,0,0,1,1.806.6q0,.449,0,.9Z" transform="translate(-206.192 -285.426)" fill="#51707f"/>
    <path d="M-1074.681-715.165l-.122-.068.122.068Z" transform="translate(-208.711 -294.137)" fill="#577581"/>
    <path d="M-1190.148-694.812l-.411,1.041c-.255-.1-.623-.128-.748-.316-.838-1.262-1.624-2.558-2.508-3.973a2.747,2.747,0,0,1-.779.29c-.609.056-1.575.274-1.782-.014-1.194-1.658-2.844-.775-4.271-.85-.367-.019-1.225,1.093-1.108,1.391.772,1.966-.739,2.946-1.677,4.083a2.026,2.026,0,0,0-.462,2.109c.1.369-.363.879-.539,1.338-.149.391-.252.8-.376,1.2l-1.207,3.925-.4.387.409.089-.009.051.1.284a8.058,8.058,0,0,1-1.254.265c-.512.029-1.192-.262-1.5-.025-.4.3-.47,1.016-.752,1.512a9.984,9.984,0,0,1-.844,1.11l-1.338-1.921c-.643-1.278-1.229-2.589-1.939-3.828a42.683,42.683,0,0,1-4.253-11.128l1.157-2.023,4.22,3.677.45-2.4c1.74,1.071,2.974.993,3.779-.237a6.182,6.182,0,0,0-.533-6.551l.3-3.293.8-.586c.074,1.253.136,2.329.2,3.4a22,22,0,0,0,1.121-3.609c.128-.452.474-1.128.809-1.185,1.4-.24,1.418-.9.946-2.007s-.631-2.145.757-2.916c.432-.24.606-1.149.676-1.776a6.126,6.126,0,0,0-.295-1.72l.455.162.814-1.451.633,1.167a3.014,3.014,0,0,0-.07,1.086c.676,2.057,2.32,2.816,4.3,3.088a12.4,12.4,0,0,1,1.163,2.138c1.33,4.207,2.548,8.449,3.893,12.65C-1191.643-698.353-1190.848-696.6-1190.148-694.812Zm-26.194-3.828a.375.375,0,0,0,.038-.124c0-.014-.067-.026-.1-.038a.376.376,0,0,0-.038.124C-1216.445-698.665-1216.378-698.653-1216.342-698.64Z" transform="translate(-122.925 -291.094)" fill="#a0b8c3"/>
    <path d="M-1210.512-720.423l-.3,3.293c-2.005-.609-2.572-.457-2.944.79-1.356,1.03-2.083,2.255-1.236,3.971l.793,1.509.141.518c-.126.671-.251,1.342-.45,2.4l-4.22-3.677-1.157,2.023q-.7-2.873-1.39-5.747l.569.02.359,1.255,2.1-1.53c-.178-1.1-.861-2.594-.526-3.807.682-2.465-1.015-4.093-1.521-6.116l.035-.579,1.305-.617a11.069,11.069,0,0,0,1.363,1.1c1.608.936,3.082.244,3.179-1.61a10.472,10.472,0,0,0-.54-3.16,1.392,1.392,0,0,0-2.036-1.073,2.626,2.626,0,0,1-.8-2.735,8.8,8.8,0,0,1,2.123-3.88c.565-.549.237-.978-.556-.939,0-.083.005-.166.009-.249l3.87-.719c.235,2.948.435,5.9.714,8.843C-1211.293-727.563-1210.888-723.995-1210.512-720.423Z" transform="translate(-120.84 -279.291)" fill="#99b2bd"/>
    <path d="M-1225.187-746.657q-.017.29-.035.579-.034,2.853-.066,5.707,0,.3-.007.59-.167,1.951-.335,3.9l-.569-.02-2.514-4.764-.009-6.876q-.093-3.462-.186-6.925c.193-.292.531-.573.554-.878a55.176,55.176,0,0,0,.278-5.705c-.025-.932-.042-2.14-1.406-2.417q.026-.757.052-1.514l.5-.579q.038.45.078.9l.246-.067-.325-.831c.039-2.328.193-4.662.064-6.98-.056-1.008.139-1.484,1.134-1.711a47.6,47.6,0,0,1-.1,6.885,3.881,3.881,0,0,0,.493,2.885,4.056,4.056,0,0,1,.771,1.6c.178,2.328.2,4.667.357,7a6.475,6.475,0,0,0,.6,1.673l.574-.134c0-1.32-.037-2.64.011-3.957.044-1.221.18-2.439.275-3.659q.031,1.951.061,3.9c-.023,2.038,0,4.077-.084,6.113C-1224.843-750.179-1225.042-748.419-1225.187-746.657Z" transform="translate(-115.919 -258.733)" fill="#e0f4fb"/>
    <path d="M-1228.3-707.493l.009,6.876-.47.01c-.007-2.089-.029-4.177,0-6.265C-1228.758-707.081-1228.459-707.286-1228.3-707.493Z" transform="translate(-116.343 -298.78)" fill="#506b79"/>
    <path d="M-1385.12-702.4c-.163-1.3-.8-2.718.888-3.555l1.452,5.523Z" transform="translate(-22.4 -299.702)" fill="#020304"/>
    <path d="M-1236.47-1151.88l-4.211,11.049-2.393.6c.138-.5.3-1,.406-1.509.18-.9.32-1.8.477-2.7.526-1.738,1.066-3.473,1.572-5.218.218-.752.365-1.525.543-2.288Z" transform="translate(-107.765 -32.152)" fill="#99b2bd"/>
    <path d="M-1301.941-567.221a9.678,9.678,0,0,0,6.164-2.524c.685,2.543-.148,3.665-2.77,3.631a14.917,14.917,0,0,1-2.784-.328C-1301.577-566.493-1301.74-566.95-1301.941-567.221Z" transform="translate(-72.45 -381.415)" fill="#465760"/>
    <path d="M-1073.76-725.778l.227.4a1.794,1.794,0,0,1-.211-.178C-1073.768-725.58-1073.753-725.642-1073.76-725.778Z" transform="translate(-209.336 -287.811)" fill="#51707f"/>
    <path d="M-1072.25-727.987l.068-.122-.067.123Z" transform="translate(-210.242 -286.413)" fill="#577581"/>
    <path d="M-1278.415-1124.145c1.563.834,2-.8,3.056-1.343l1.18,1.643c.223-1.2.418-2.241.613-3.286a95.015,95.015,0,0,0,1.388,19.854c.6,3.756,1.037,7.54,1.547,11.311-2.822-.326-3.531-.988-3.912-3.6a2.417,2.417,0,0,0-.34-.972,4.9,4.9,0,0,0-.789-.764,3.944,3.944,0,0,0-.642.877c-.726,1.978-1.41,3.971-2.108,5.959a2.692,2.692,0,0,0-.306-.31c-.47-.346-.949-.683-1.424-1.022.068.542.146,1.084.2,1.628.013.134-.06.276-.028.143l-2.357,1.093a8.774,8.774,0,0,0-1.094,2.1c-1.285,6.065-2.67,12.118-3.676,18.232-.843,5.132-1.221,10.34-1.8,15.516-.379,3.4-.776,6.8-1.106,10.207-.19,1.961-.265,3.933-.391,5.88l3.5,1.2c-.16-2.472-.3-4.593-.434-6.714h1.5l.483-1.54c1.229.731,2.387,1.311,3.635.354,1.364,2.073,2.7,4.162,4.814,5.605.243.166.479.81.363.962-1.331,1.747-.032,2.545,1.124,3.475a8.156,8.156,0,0,1,1.13,1.59,7.057,7.057,0,0,0-1.773-.082c-.459,1.272-1.586.831-2.449,1.07-.883.245-1.742.583-2.611.879l-5.089.025a18.066,18.066,0,0,1-8.341-2.7c-4.241-2.654-7.861-5.926-10.077-10.5a4.251,4.251,0,0,1-.256-2.662c1.508-6.109,2.989-12.231,4.744-18.272,1.62-5.574,3.4-11.114,5.419-16.555,2.346-6.33,5.024-12.536,7.557-18.8.668-1.651,1.361-3.293,1.987-4.96a5.883,5.883,0,0,0,.17-1.423l.3-.306.916-1.783a15.372,15.372,0,0,0,1.167-1.921C-1281.2-1117.4-1279.814-1120.779-1278.415-1124.145Z" transform="translate(-70.62 -47.039)" fill="#aac1cb"/>
    <path d="M-1264.94-902.031l5.089-.025a77.573,77.573,0,0,0,7.852-1.59c2.745-.838,5.355-2.119,8.023-3.207q.019,5.98.037,11.959l-1.222.33-20.989.016-2.4-.058c-.078-.853.413-1.957-.984-2.227.147-.7.06-1.676.489-2.029a36.131,36.131,0,0,1,3.448-2.085C-1265.275-901.153-1265.152-901.662-1264.94-902.031Z" transform="translate(-91.893 -179.184)" fill="#7f99a6"/>
    <path d="M-1305.855-1039.2l.6-1.5c1.049-2.679,2.078-5.367,3.157-8.034.383-.947.891-1.844,1.343-2.763l.876.9c-1.487,3.846-3.075,7.657-4.438,11.547-2.081,5.938-4.091,11.9-5.972,17.908-1.658,5.293-3.091,10.657-4.645,15.983a19.167,19.167,0,0,1-.791,1.932,5.312,5.312,0,0,1-.891-.82,8.028,8.028,0,0,1-.6-1.27c1.945-6.106,3.829-12.233,5.854-18.312,1.521-4.567,3.226-9.072,4.84-13.608a3.973,3.973,0,0,0,.116-.733l-.018-.018Z" transform="translate(-63.283 -92.41)" fill="#aac1cb"/>
    <path d="M-1257.487-1133.189c-.157.9-.3,1.806-.476,2.7-.1.51-.269,1.006-.406,1.509q0,.295-.01.589l-.591.609c-.551,1.522-1.125,3.037-1.647,4.568-.672,1.968-1.3,3.949-1.951,5.924-1.089,2.278-2.159,4.565-3.28,6.827a18.62,18.62,0,0,1-1.2,1.854l-1.526.609c2.483-5.568,4.978-11.131,7.443-16.708C-1259.886-1127.52-1258.7-1130.36-1257.487-1133.189Z" transform="translate(-92.469 -43.405)" fill="#a6bec9"/>
    <path d="M-1324.377-896.406c-1.248-.3-2.485-.659-3.747-.868-1.064-.176-1.1-.705-.89-1.584.407-1.675.718-3.374,1.069-5.062.917.166,1.829.382,2.753.474a5.639,5.639,0,0,0,1.433-.242C-1323.955-901.387-1324.166-898.9-1324.377-896.406Z" transform="translate(-56.147 -180.943)" fill="#708c98"/>
    <path d="M-1253.57-1111.871c.649-1.975,1.279-3.957,1.95-5.924.523-1.532,1.1-3.046,1.647-4.568l.592-.609q0-.295.01-.589l2.393-.6q-.3.9-.59,1.8c-1.4,3.366-2.78,6.74-4.212,10.093a15.372,15.372,0,0,1-1.167,1.921Z" transform="translate(-101.468 -48.82)" fill="#90abb5"/>
    <path d="M-1319.947-936.081a8.006,8.006,0,0,0,.6,1.27,5.313,5.313,0,0,0,.891.82l-1.191,5.751-2.117-.953Z" transform="translate(-60.559 -161.65)" fill="#adc5ce"/>
    <path d="M-1273.073-1071.136l1.527-.609-3.652,9-.876-.9Z" transform="translate(-87.967 -80.265)" fill="#adc5ce"/>
    <path d="M-1328.043-904.776l-1.222-.267,1.211-.288Q-1328.048-905.053-1328.043-904.776Z" transform="translate(-56.059 -180.098)" fill="#708c98"/>
    <path d="M-1254.747-1085.185l-.3.306Z" transform="translate(-100.583 -72.203)" fill="#90abb5"/>
    <path d="M-1289.672-1020.769l-.575,1.214Z" transform="translate(-79.466 -110.846)" fill="#76909c"/>
    <path d="M-1310.151-781.075c-.014.606-.137,1.052-.928.851-.557-.142-1.137-.192-1.707-.283l-9.3-3.046-.053.039-.639-.459c-.257-.146-.5-.315-.773-.435-6.226-2.765-12.435-5.558-17.484-10.319a26.245,26.245,0,0,1-7.428-13.394c1.243.233,2.236.453,3.239.6,9.248,1.367,17.767,5.077,26.463,8.217.842.3,1.682.617,2.523.925l6.307,2.38L-1310-796a.17.17,0,0,0,.1.232Q-1310.023-788.423-1310.151-781.075Z" transform="translate(-44.541 -238.414)" fill="#020304"/>
    <path d="M-1321.366-765.052l9.3,3.046c-.23.977-.489,1.948-.679,2.932-.158.821-.234,1.657-.346,2.486-1.242-.032-2.432-.116-3.362,1.075-.625.8-1.212,1.362-.887,2.568a2.885,2.885,0,0,1-.784,3.148c-.318.273-.277,1-.342,1.523-.143,1.164-.2,2.344-1.892,2.225a1.383,1.383,0,0,0-.859.5c-1.583,1.65-2.487,1.73-4.458.345l1.863-5.433,1.782-.836,1.2-1.867c.194-.6.425-1.187.573-1.8.417-1.709-.387-2.631-2.1-2.451-.538.056-1.076.117-1.614.176a79.369,79.369,0,0,1-15.605-8.736c-1.089-.768-2.127-1.608-3.189-2.414l-.349-1.378.759-1.946-.515-.353-.4.868a6.375,6.375,0,0,0-2.666-4.127l-1.324.072c.56-.565-.494-1.9.96-1.855l2.943,2.711c1.377,1.131,2.691,2.351,4.142,3.376a38.449,38.449,0,0,0,13.851,6.006A20.577,20.577,0,0,0-1321.366-765.052Zm7.74,7.1.344-.364a3,3,0,0,0-.864-.528c-.165-.036-.409.28-.692.495Zm-6.758,8.344c-.033-.083-.046-.212-.1-.237s-.161.052-.245.084c.033.083.046.211.1.238S-1320.467-749.574-1320.384-749.607Zm-.267,1.545-.106.246c.082.035.182.116.242.093s.076-.151.111-.233Z" transform="translate(-45.262 -256.915)" fill="#a6bec9"/>
    <path d="M-1226.462-797.43c-.095,1.22-.23,2.437-.275,3.659-.048,1.318-.011,2.638-.011,3.957l-.574.134a6.477,6.477,0,0,1-.6-1.673c-.16-2.329-.179-4.669-.357-7a4.057,4.057,0,0,0-.771-1.6,3.881,3.881,0,0,1-.493-2.885,47.6,47.6,0,0,0,.1-6.885c-1,.227-1.19.7-1.134,1.711.129,2.318-.025,4.652-.064,6.98h0l-.5.579q-.069-.888-.138-1.776l-.077-6.024q-.1-2.976-.21-5.952-.267-8.328-.541-16.656c-.025-.727-.152-1.45-.231-2.175l.5-.062,1.2-.01,1.188-.016,16.181-.257c-.147,1.157-.989,1.214-1.877,1.166a18.588,18.588,0,0,0-10.389,2.445,4.054,4.054,0,0,0-2.093,4c.292,3.763.712,7.521.851,11.289C-1226.574-808.8-1226.56-803.114-1226.462-797.43Z" transform="translate(-114.202 -223.26)" fill="#d4ebf3"/>
    <path d="M-1258.156-768.752q.127-7.348.255-14.7l.127-.188-.229-.044.065.006a2.3,2.3,0,0,0-2.2-1.616,6.161,6.161,0,0,1-1.656-.56l.659-1.729c1.372.526,2.877,1.118,4.395,1.68,2.724,1.009,2.731,1,2.738,3.881q.01,4.681,0,9.361c-.025,2.662-.025,2.661-2.574,2.7-.243,0-.486.024-.855.042l.261,1.035Z" transform="translate(-96.535 -250.737)" fill="#658390"/>
    <path d="M-1315.514-763.47a20.559,20.559,0,0,1-4-.133,38.449,38.449,0,0,1-13.851-6.006c-1.451-1.026-2.765-2.245-4.142-3.376l1.206.3-.068.122.068-.122,2.756.5-.917-2.452c5.048,4.761,11.257,7.554,17.484,10.319.269.12.516.288.773.435l.639.459Z" transform="translate(-51.115 -258.496)" fill="#7f99a6"/>
    <path d="M-1257.536-819.226a2.416,2.416,0,0,1,2.1,2.746,2.29,2.29,0,0,1-2.5,1.776,1.737,1.737,0,0,1-1.742-1.977A2.389,2.389,0,0,1-1257.536-819.226Z" transform="translate(-97.803 -231.751)" fill="#adc5ce"/>
    <path d="M-1265.47-784.188a6.153,6.153,0,0,0,1.656.56,2.3,2.3,0,0,1,2.2,1.616l-6.307-2.379C-1267.023-785.313-1266.271-784.46-1265.47-784.188Z" transform="translate(-92.858 -252.399)" fill="#7f99a6"/>
    <path d="M-1230.651-785.453q.1,2.976.21,5.952c-.128-.072-.371-.145-.369-.214C-1230.772-781.628-1230.71-783.541-1230.651-785.453Z" transform="translate(-115.122 -252.012)" fill="#60808d"/>
    <path d="M-1197.119-757.4c-.376-3.571-.781-7.139-1.119-10.714-.279-2.944-.479-5.9-.714-8.843l9.314-3.26c.488.412.952,1.133,1.468,1.173a8.035,8.035,0,0,0,3.521-.316c3.1-1.254,6.142-2.657,9.125-4.164a56.669,56.669,0,0,0,5.625-3.419,31.505,31.505,0,0,0,2.711-2.241l.354-.059-.033-.13c1.218-.9,2.487-1.743,3.643-2.72,2.705-2.286,4.573-5.041,4.526-8.766l2.417-.758.818,2.548c-.607,1.776-1.1,3.6-1.846,5.318-1.2,2.754-2.562,5.436-3.856,8.148-.553.29-1.129.545-1.656.875-2.982,1.87-5.849,3.957-8.953,5.591-4.4,2.319-8.976,4.314-13.485,6.428a5.181,5.181,0,0,1-1.15.249l-.525.1.027-.016c-.548,0-1.1-.021-1.644,0-2.371.082-3.1,1.135-2.285,3.3l-.814,1.451-.455-.162a6.119,6.119,0,0,1,.295,1.72c-.07.628-.244,1.537-.676,1.776-1.389.771-1.228,1.813-.758,2.916s.454,1.768-.946,2.007c-.335.057-.682.733-.81,1.185a21.988,21.988,0,0,1-1.12,3.609c-.063-1.075-.126-2.15-.2-3.4Z" transform="translate(-134.234 -242.316)" fill="#a6bec9"/>
    <path d="M-1108.987-818.387c1.294-2.712,2.659-5.393,3.856-8.148.746-1.716,1.239-3.541,1.846-5.318l2.453-11.069c.577-1.368,1.249-2.706,1.7-4.113a25.975,25.975,0,0,0,.663-3.485c.377-2.147,1.784-3.594,3.356-4.918a12.713,12.713,0,0,1,1.216-.827l.213,1.038c-.407,2.132-.795,4.269-1.225,6.4-.876,4.32-1.69,8.655-2.692,12.946-.8,3.431-1.852,6.8-2.772,10.206-.876,3.24-1.726,6.488-2.588,9.732q-.157.6-.314,1.192a5.678,5.678,0,0,1-1.149-1.3,8.086,8.086,0,0,1-.313-2.019l-3.043,6.056c-.7.337-1.956.547-2.216,1.171-.246.591.546,1.615.853,2.379l-2.834.307c.687-2.164,1.4-4.321,2.05-6.5C-1109.556-815.888-1109.3-817.144-1108.987-818.387Z" transform="translate(-186.413 -209.532)" fill="#60808d"/>
    <path d="M-1179.147-725.261c-.812-2.162-.086-3.215,2.285-3.3.547-.019,1.1,0,1.644,0l.507.785.376,1.437-1.136.29-1.618,2.874-1.424-.923Z" transform="translate(-145.923 -286.138)" fill="#d4ebf3"/>
    <path d="M-1170.023-724.854l1.136-.29-.376-1.437c1.084.419,2.247.812,2.162,2.284a3.782,3.782,0,0,1-2.146,3.629l-1.137-.063Q-1170.2-722.792-1170.023-724.854Z" transform="translate(-151.372 -287.33)" fill="#465760"/>
    <path d="M-1174.565-715.216l1.137.063q.2.97.41,1.94c-1.978-.272-3.622-1.032-4.3-3.088a3.017,3.017,0,0,1,.07-1.086l1.424.922.45.621.487.524Z" transform="translate(-147.19 -292.845)" fill="#a6bec9"/>
    <path d="M-1168.917-728.645l.525-.1Z" transform="translate(-152.252 -286.034)" fill="#d4ebf3"/>
    <path d="M-1164.34-607.742l-1.056,1.18-.554.36-.887.072-.891-.508,2.1-2.207c.416-2.062-.385-3.438-2.107-3.624l-.245-.449C-1164.589-613.617-1163.125-611.533-1164.34-607.742Z" transform="translate(-152.816 -355.436)" fill="#465760"/>
    <path d="M-1188.246-632.587l-.1-.284.58-.08c2.038.176,2.084.13,1.883-1.831-.006-.057.126-.128.194-.192l.668.6c1.626.247,2.958.682,1.762,2.742C-1184.832-630.5-1186.375-630.793-1188.246-632.587Z" transform="translate(-140.597 -342.284)" fill="#876548"/>
    <path d="M-1179.135-637.626c1.195-2.06-.137-2.5-1.763-2.742l1.063-.08c.214-1.639.216-3.048-1.64-3.559.641-1.175,1.319-1.274,2.368-.285,1.29,1.216,1.418,2.806,1.329,4.443a8.046,8.046,0,0,1-.181,1.009Z" transform="translate(-144.719 -336.289)" fill="#465760"/>
    <path d="M-1155.434-601.718l-.591-.473.2-.252.593.471Z" transform="translate(-159.985 -361.8)" fill="#869fac"/>
    <path d="M-1142.005-600.023c-.036.082-.054.208-.113.232s-.158-.058-.239-.094c.036-.082.054-.208.112-.232S-1142.087-600.059-1142.005-600.023Z" transform="translate(-168.185 -363.193)" fill="#869fac"/>
    <path d="M-1141.182-642.385l.123.068-.056.055Z" transform="translate(-168.89 -337.839)" fill="#99b2bd"/>
    <path d="M-1185.6-642.567c1.855.511,1.854,1.92,1.64,3.559l-1.063.08-.667-.6-2.077,2.023-.58.08.008-.05c0-.158,0-.318-.007-.477l1.207-3.925Z" transform="translate(-140.597 -337.729)" fill="#cfe6ef"/>
    <path d="M-1144.383-646.183c.162.269.324.423.32.572,0,.1-.27.291-.37.263a.529.529,0,0,1-.3-.384C-1144.747-645.841-1144.556-645.973-1144.383-646.183Z" transform="translate(-166.758 -335.56)" fill="#90abb5"/>
    <path d="M-1215.343-840.2a18.585,18.585,0,0,1,10.389-2.446c.889.047,1.73-.009,1.877-1.166a22.015,22.015,0,0,1,3.925-.882,126.379,126.379,0,0,0,20.839-3.156c.958-.2,1.9-.5,2.842-.761q3.639-.864,7.277-1.729c.567-.135,1.13-.287,1.7-.431.724,1.273-.545,1.894-.919,2.807-2.54,1.308-5.033,2.717-7.628,3.9-6.585,3.01-13.207,5.94-19.833,8.859-3,1.32-5.981,2.7-9.072,3.761-3.712,1.269-3.759,1.132-3.972,5l-.334.14.334.14.07.608-1.189.13v.778l-.009,0-.3.29-3.593.907-.6.289-.594.015-.915-1.35,4.607-.207c-.39-1.393-.739-2.64-1.088-3.887.033-.646.1-1.293.094-1.938-.019-2.3-1.024-3.23-3.294-3.08A7.276,7.276,0,0,0-1215.343-840.2Z" transform="translate(-124.401 -212.827)" fill="#a6bec9"/>
    <path d="M-1226.909-832.738l-1.187.016Z" transform="translate(-116.75 -223.646)" fill="#60808d"/>
    <path d="M-1097.23-850.58c.374-.913,1.644-1.534.919-2.807l3.9-1.743q-.123,6.445-.246,12.889-1.226,5.535-2.453,11.07c-.274-.852-.547-1.7-.818-2.548l-2.417.758Q-1097.787-841.77-1097.23-850.58Z" transform="translate(-194.589 -210.213)" fill="#aac1cb"/>
    <path d="M-1273.787-669.806c-.01.11-.021.22-.031.329l-.869.538c-.345-.023-.693-.025-1.034-.075a2.054,2.054,0,0,1-1.027-.271c-.129-.118.08-.62.158-.944a9.746,9.746,0,0,0,.383-1.52c.227-3.157.174-6.358.7-9.46.32-1.878,1.512-3.609,2.331-5.4q.561-1.227,1.2-2.417a2.833,2.833,0,0,1,.566-.571q.034,1.683.066,3.366-.044,1.014-.088,2.028l-1.214.094a20.626,20.626,0,0,0-1.4,3.493c-.44,2.166-.677,4.376-.92,6.577a9.13,9.13,0,0,0,.042,2.828C-1274.811-670.686-1274.183-670.271-1273.787-669.806Zm1.41-16.672c-.036.082-.117.182-.094.241s.151.077.233.113c.036-.082.118-.182.094-.24S-1272.295-686.442-1272.378-686.478Z" transform="translate(-87.539 -309.517)" fill="#90abb5"/>
    <path d="M-1292.506-612.577c2.067,1.091,2.364,2.065,1.224,4-.225.383-.435.775-.651,1.163l-1.812,2.42c-1.607.074-2.459-.954-3.02-2.228a3.534,3.534,0,0,1,.77-3.826l.85.044q-.037.971-.069,1.944c-1.092,1.558-.985,1.9.988,2.812.715-.75,1.5-1.508,2.191-2.336.2-.237.152-.681.217-1.031-.347.045-.7.071-1.038.142a2.562,2.562,0,0,0-.522.234l.473-2.322Z" transform="translate(-75.386 -355.72)" fill="#465760"/>
    <path d="M-1273.4-638.774l.869-.538c1.4.729.851,2.027.921,3.144-1.722,1.4-2.651,1.169-2.978-.757-.033-.2-.038-.4-.055-.593Z" transform="translate(-88.825 -339.682)" fill="#adc5ce"/>
    <path d="M-1275.969-634.827c.018.2.022.4.055.593.328,1.927,1.256,2.162,2.978.757-.112,1.612-.667,2.133-2.7,2.539C-1277.2-632.4-1277.2-632.437-1275.969-634.827Z" transform="translate(-87.501 -342.373)" fill="#465760"/>
    <path d="M-1290.929-613.039l-.4,1.014c-.986-.775-1.592-.027-2.238.559l-.853-.045a3.116,3.116,0,0,1,3.136-1.827Z" transform="translate(-76.963 -355.259)" fill="#593b2f"/>
    <path d="M-1168.759-611.594c1.722.186,2.522,1.562,2.107,3.624l-1.583-1.218-.871,1.958C-1170.276-608.993-1169.435-610.287-1168.759-611.594Z" transform="translate(-151.788 -356.31)" fill="#adc5ce"/>
    <path d="M-1165.13-595.859l.887-.072.3.6h0Z" transform="translate(-154.523 -365.706)" fill="#869fac"/>
    <path d="M-1162.612-595.872l-.3-.6.555-.36.648.771Z" transform="translate(-155.853 -365.166)" fill="#7f99a6"/>
    <path d="M-1289.306-727.916c.538-.059,1.075-.12,1.614-.176,1.717-.18,2.521.742,2.1,2.451-.149.609-.38,1.2-.574,1.8-.595-.684-1.176-1.382-1.809-2.031-.054-.056-.453.21-.681.343-.278.163-.546.346-.818.52l.035-2.513Z" transform="translate(-79.932 -286.409)" fill="#cda66e"/>
    <path d="M-1292.414-726.638q-.017,1.256-.035,2.513c.005,2.311.141,2.505,2.111,3.034l-1.782.836C-1295.114-722.334-1295.2-724.121-1292.414-726.638Z" transform="translate(-76.953 -287.295)" fill="#593b2f"/>
    <path d="M-1208.617-884.2l1.222-.33c.446-.025.9-.02,1.337-.08q5.158-.7,10.313-1.428a91.052,91.052,0,0,0,17.412-3.542l2.7.846v2.434l-6.338,1.365.364.348c-6.282.83-12.56,1.694-18.849,2.472-2.4.3-4.833.4-7.251.59Q-1208.164-882.864-1208.617-884.2Z" transform="translate(-128.436 -189.545)" fill="#60808d"/>
    <path d="M-1257.745-876.137l.907,2.676-1.2.035h-20.7l-11.118-.9-.657-.965c1.562.259,3.028.474,4.481.753,1.223.235,2.459.643,3.1-1.031l4.485,1.187c-.109-.656-.2-1.2-.289-1.744Z" transform="translate(-79.308 -197.611)" fill="#577581"/>
    <path d="M-1261.08-869.359h20.7a5.777,5.777,0,0,1-1.147.232q-9.27,0-18.542-.038A5.521,5.521,0,0,1-1261.08-869.359Z" transform="translate(-96.963 -201.676)" fill="#876548"/>
    <path d="M-1141.664-879.67l-.364-.348,6.338-1.366,1.846.031Z" transform="translate(-168.382 -194.463)" fill="#876548"/>
    <path d="M-1317.987-874.522l.933.212Z" transform="translate(-62.825 -198.58)" fill="#cda66e"/>
    <path d="M-1084.039-894.444l.225-.2Z" transform="translate(-203.17 -186.509)" fill="#cda66e"/>
    <path d="M-1321.771-875.1l.347.141Z" transform="translate(-60.554 -198.236)" fill="#cda66e"/>
    <path d="M-1162.863-914.8a91.08,91.08,0,0,1-17.412,3.542,6.567,6.567,0,0,0-1.1-.325,11.994,11.994,0,0,0-1.43-.014l-.021-.425a61.74,61.74,0,0,0,5.978-2.156,28.859,28.859,0,0,0,10.344-7.958c1.1-1.374.679-2.557-1.137-3.17l-.346-4.5,1.053.409,3.5-2.227c.388,2.18.806,4.354,1.157,6.54.452,2.815.844,5.639,1.284,8.456a2.1,2.1,0,0,0,.366.639Z" transform="translate(-143.906 -164.322)" fill="#99b2bd"/>
    <path d="M-1168.154-1063.92c.819-.1,1.637-.244,2.459-.287a2.038,2.038,0,0,1,2.191.955c.318.548,1.025,1.143,1.7.186,1.57,1.4,3.148,2.783,4.7,4.193.437.4.809.864,1.212,1.3,4.624,6.274,7.809,13.336,11.128,20.324.434,1.371.86,2.744,1.3,4.113,2.239,6.932-.118,10.509-4.61,14.2-2.06.667-4.111,1.364-6.184,1.986-.7.211-1.513.369-1.819-.665l-3.41-11.52,1.219.294.423.779.426-.7-.85-.078c-.024-.847-.056-1.694-.07-2.542a19.847,19.847,0,0,0-.048-2.7,21.464,21.464,0,0,0-.793-2.839c-.589-1.951-1.151-3.911-1.794-5.844-.533-1.6-1.206-3.152-1.749-4.749-.968-2.847-1.879-5.713-2.824-8.568C-1166.406-1058.7-1167.283-1061.311-1168.154-1063.92Z" transform="translate(-152.709 -84.781)" fill="#d4ebf3"/>
    <path d="M-1153.21-1062.234l-.6-.6Z" transform="translate(-161.316 -85.614)" fill="#d4ebf3"/>
    <path d="M-1154.2-1063.745q-.137-.3-.272-.6Z" transform="translate(-160.915 -84.705)" fill="#d4ebf3"/>
    <path d="M-1117.948-978.506c4.492-3.686,6.849-7.264,4.61-14.2-.442-1.369-.869-2.742-1.3-4.113.419.728.854,1.447,1.253,2.187.3.561.559,1.146.836,1.721.51,1.946,1.168,3.867,1.493,5.844.365,2.222.431,4.494.627,6.744q-.016.15-.031.3l-.289.6-3.263,4.234c-.812-.682-1.58-1.847-2.446-1.925C-1117.6-977.213-1117.745-977.733-1117.948-978.506Z" transform="translate(-182.828 -125.216)" fill="#a6bec9"/>
    <path d="M-1133.327-1052.116l.514.562-.188.2-.6-.483Z" transform="translate(-173.439 -92.041)" fill="#869fac"/>
    <path d="M-1382.713-901.2c-2.13-1.087-4.257-2.179-6.392-3.255a9.756,9.756,0,0,0-1.075-.4l-2.689-2.715q-.011-.433-.022-.867c2.251.823,4.586,1.473,6.733,2.512,2.783,1.346,5.723,2.452,8.161,4.415.412.331.393,1.2.574,1.815-.579-.059-1.348.1-1.7-.216A3.912,3.912,0,0,0-1382.713-901.2Z" transform="translate(-17.89 -178.233)" fill="#415d6c"/>
    <path d="M-1392.846-906.271l2.689,2.715C-1392.023-902.911-1392.947-903.844-1392.846-906.271Z" transform="translate(-17.912 -179.533)" fill="#876548"/>
    <path d="M-1165.606-1036.462c.2.774.343,1.293,1.487,1.4.866.078,1.634,1.243,2.446,1.925-1.728,2.209-4.157,3.1-6.793,3.557-1.072.184-2.173.192-3.253.34-.174.024-.305.361-.456.553l-3.5,2.227-1.053-.409c-.55-2.514-.989-5.059-1.672-7.537-1.818-6.586-3.578-13.2-5.669-19.7-2.064-6.416-4.392-12.754-6.815-19.045-2.01-5.216-4.327-10.315-6.508-15.465.487-1.183,1.605-2.177.972-3.7-.09-.218.527-.728.818-1.1l.958,1.484q.73,1.8,1.462,3.6c-.2.005-.406,0-.607.019-.363.04-.724.1-1.085.147a5.809,5.809,0,0,0,.328,1.28c.094.187.479.229.328.165l.437,2.54.481.058,1.343-1.527a10.7,10.7,0,0,1,.556,1.044c1.726,4.3,3.475,8.586,5.151,12.9q2.809,7.235,5.5,14.515c1.292,3.495,2.49,7.024,3.73,10.539l3.41,11.52c.307,1.034,1.116.875,1.819.665C-1169.717-1035.1-1167.666-1035.795-1165.606-1036.462Z" transform="translate(-135.17 -67.26)" fill="#a0b8c3"/>
    <path d="M-1189.064-1088.444l-1.462-3.6,1.963,1.59c.348-.428.134-1.023-.463-1.7a3.856,3.856,0,0,1-.469-1.327c.495-.039.989-.1,1.484-.112.346-.011.694.034,1.041.054l2.7,5.7.589.606,2.1,5.689c.871,2.61,1.748,5.218,2.613,7.83.945,2.855,1.856,5.721,2.824,8.569.543,1.6,1.216,3.149,1.749,4.749.644,1.933,1.205,3.893,1.794,5.844a21.457,21.457,0,0,1,.793,2.839,19.808,19.808,0,0,1,.048,2.7c.015.847.047,1.694.07,2.542h0l-1.219-.294c-1.24-3.514-2.438-7.043-3.73-10.538q-2.691-7.28-5.5-14.515c-1.676-4.317-3.424-8.606-5.151-12.9a10.56,10.56,0,0,0-.557-1.044Zm1.31-2.61c.082.036.182.118.241.094s.077-.151.113-.234c-.082-.036-.182-.118-.24-.094S-1187.718-1091.138-1187.754-1091.055Z" transform="translate(-139.288 -67.158)" fill="#e0f4fb"/>
    <path d="M-1221.359-1133.136q.088-1.246.175-2.488c1.4,1.153,2.84.484,4.278.093q2.95,6.937,5.9,13.876c.191.452.316.932.472,1.4-1.248.041-2.614-.243-3.346,1.217l-5.4-10.479Z" transform="translate(-120.792 -41.944)" fill="#aac1cb"/>
    <path d="M-1202.676-1096c.732-1.459,2.1-1.175,3.346-1.217l.558,1.516c-.291.375-.908.886-.818,1.1.634,1.528-.484,2.522-.972,3.7l-.887-1.834-.579-.887q-.018-.3-.035-.592Z" transform="translate(-132 -64.988)" fill="#a6bec9"/>
    <path d="M-1218.073-1147.385l1.472,1.526q.019.28.039.56l-1.506.911v0a8.246,8.246,0,0,1-.307-1.569A6.387,6.387,0,0,1-1218.073-1147.385Z" transform="translate(-122.582 -34.889)" fill="#aac1cb"/>
    <path d="M-1223.643-1100.276c-.51-3.771-.943-7.555-1.547-11.311a95.008,95.008,0,0,1-1.388-19.854c.206-.91.411-1.82.648-2.875l.828,1.092a3.619,3.619,0,0,0-.05,1.208c.663,2.1,1.385,4.184,2.087,6.272q.766,3.89,1.531,7.78c-.089.167-.272.345-.252.5.278,2.206.579,4.41.885,6.613q1.175,8.461,2.357,16.921c.494,3.58.956,7.163,1.449,10.743.608,4.415,1.262,8.824,1.838,13.243.269,2.062.478,4.138.581,6.214.166,3.354.591,6.756.2,10.054a7.192,7.192,0,0,1-4.018,5.543c-.226-3.823-.409-7.648-.691-11.467-.339-4.606-.745-9.207-1.157-13.807-.235-2.621-.527-5.236-.816-7.852-.414-3.748-.811-7.5-1.29-11.24C-1222.782-1095.1-1223.24-1097.685-1223.643-1100.276Z" transform="translate(-117.609 -42.729)" fill="#e0f4fb"/>
    <path d="M-1220.864-1124.105c-.7-2.089-1.424-4.171-2.087-6.273a3.626,3.626,0,0,1,.05-1.208l.561.872,2.076,3.619a3.3,3.3,0,0,0-.238.909c.021.691,1.2,1.394-.042,2.067Z" transform="translate(-119.81 -44.367)" fill="#99b2bd"/>
    <path d="M-1217.709-1139.9l-.069.122.068-.124Z" transform="translate(-122.94 -39.379)" fill="#aac1cb"/>
    <path d="M-1174.3-1078.6l-.589-.606Z" transform="translate(-148.671 -75.787)" fill="#d4ebf3"/>
    <path d="M-1099.962-954.238l.289-.6Z" transform="translate(-193.618 -150.397)" fill="#76909c"/>
    <path d="M-1263.449-681.029q.043-1.014.088-2.028a15.677,15.677,0,0,0,1.634-.6c1.979-.982,2.9-.88,4.494.563.465.956,1.216,1.869.457,3.011l-.12-.094a2.163,2.163,0,0,0-1.494-2.794,1.971,1.971,0,0,0-2.549,1.362c-1.317,2.409.066,4.2,2.112,4.123a1,1,0,0,0,.193.047l.009.01c-.979,1.566-1.836,1.813-4.054,1.169C-1263.993-677.682-1263.265-679.429-1263.449-681.029Z" transform="translate(-95.518 -312.69)" fill="#465760"/>
    <path d="M-1229.481-747.3c1.363.277,1.381,1.486,1.406,2.417a55.174,55.174,0,0,1-.278,5.705c-.024.3-.362.586-.554.878Z" transform="translate(-115.919 -274.902)" fill="#d4ebf3"/>
    <path d="M-1268.823-676.115c.184,1.6-.544,3.347.769,4.765-1.227.255-.058,1.284-.574,1.818-.173.179.068.763-.105.935-1.551,1.535-1.169,3.593-1.584,5.438a5.379,5.379,0,0,1-.865,1.44c-.4-.465-1.023-.88-1.133-1.4a9.129,9.129,0,0,1-.042-2.827c.244-2.2.48-4.411.92-6.577a20.627,20.627,0,0,1,1.4-3.493Z" transform="translate(-90.144 -317.604)" fill="#869fac"/>
    <path d="M-1247.734-673.9l-.671,1.14-.009-.006.559-1.227Z" transform="translate(-104.561 -318.876)" fill="#465760"/>
    <path d="M-1250.763-668.67l-.587.61-.009-.01.072-.534.014.016.5-.093Z" transform="translate(-102.795 -322.064)" fill="#465760"/>
    <path d="M-1248.989-670.921l-.234.661c-.054-.049-.109-.1-.164-.144l.389-.523Z" transform="translate(-103.978 -320.716)" fill="#465760"/>
    <path d="M-1241.686-660.367l-.07.124.068-.126Z" transform="translate(-108.556 -327.05)" fill="#76909c"/>
    <path d="M-1249.53-669.476l-.357.243-.011-.012.2-.376C-1249.638-669.573-1249.584-669.525-1249.53-669.476Z" transform="translate(-103.671 -321.5)" fill="#465760"/>
    <path d="M-1203.448-676.6c-.047-.172-.094-.345-.141-.517,1.351.266,2.406-.159,2.687-1.551a10.367,10.367,0,0,0-.122-2.6c-.377-.97-.767-1.92-2.123-1.33.373-1.247.939-1.4,2.944-.79a6.181,6.181,0,0,1,.533,6.551C-1200.475-675.607-1201.708-675.529-1203.448-676.6Z" transform="translate(-131.452 -313.033)" fill="#465760"/>
    <path d="M-1188.944-631.036c0,.159,0,.318.007.477l-.409-.09Z" transform="translate(-139.996 -344.647)" fill="#e1c68e"/>
    <path d="M-1214.306-666.4c-.036-.013-.1-.025-.1-.038a.385.385,0,0,1,.038-.124c.036.012.1.024.1.038A.371.371,0,0,1-1214.306-666.4Z" transform="translate(-124.961 -323.335)" fill="#99b2bd"/>
    <path d="M-1195.961-786.234l-9.314,3.26-3.871.719a.6.6,0,0,0-.271-.1l.032.026.1-1.786-.2-9.859a6.566,6.566,0,0,0,.043-1.334c-.229-1.373.349-2.093,1.621-2.613,2.331-.953,4.591-2.079,6.88-3.133v-.008l5.18-2.487.413-.085,1.9-.8c.19-.052.383-.1.57-.159,5.078-1.708,10.135-3.484,15.243-5.1,2.546-.8,5.185-1.312,7.782-1.953,1.173.352.535,1.267.474,1.868-.295,2.873-1.755,5.291-3.211,7.7l-2.5,3.233c-1.26,1.117-2.457,2.318-3.792,3.337A71.187,71.187,0,0,1-1195.961-786.234Z" transform="translate(-127.911 -236.298)" fill="#020304"/>
    <path d="M-1218.748-726.28c.144-1.762.344-3.522.418-5.287.086-2.035.061-4.075.084-6.113,1.715-.167.88-1.681,1.288-2.514l1.277-.088.743.767-.031-.026.262.348c.793-.039,1.121.39.556.939a8.8,8.8,0,0,0-2.123,3.88,2.626,2.626,0,0,0,.8,2.735l-.719,1.163q-.458,1.348-.917,2.7l-.331.883Z" transform="translate(-122.358 -279.111)" fill="#a0b8c3"/>
    <path d="M-1219.855-693.641l.335-3.9.747-.178v-.23l-.742-.182q.032-2.853.066-5.707c.506,2.022,2.2,3.65,1.521,6.116-.336,1.214.347,2.709.526,3.807l-2.1,1.53Z" transform="translate(-121.694 -300.972)" fill="#a0b8c3"/>
    <path d="M-1214.239-717.731l.719-1.163a1.393,1.393,0,0,1,2.037,1.073,10.472,10.472,0,0,1,.54,3.16c-.1,1.854-1.571,2.546-3.179,1.61a11.073,11.073,0,0,1-1.363-1.1l.331-.883.545.856c1.144.491,1.207.429,1.6-1.564l1.05-1.982C-1212.75-718.685-1213.5-718.393-1214.239-717.731Z" transform="translate(-124.315 -291.855)" fill="#465760"/>
    <path d="M-1204.881-681.168c1.356-.591,1.745.36,2.123,1.33l-.318.011c-1.1-.33-1.365.651-1.9,1.21a9.068,9.068,0,0,1-.558,1.181c-.093.144-.384.162-.584.238C-1206.964-678.913-1206.237-680.139-1204.881-681.168Z" transform="translate(-129.718 -314.463)" fill="#d4ebf3"/>
    <path d="M-1202.534-677.56l.318-.011a10.379,10.379,0,0,1,.122,2.6c-.281,1.392-1.336,1.817-2.687,1.551l-.794-1.51c.2-.076.491-.094.584-.238a9.117,9.117,0,0,0,.558-1.182c.006.2-.056.435.032.584.249.424.491,1.067.858,1.165.909.242,1-.477.99-1.183C-1202.563-676.375-1202.541-676.968-1202.534-677.56Z" transform="translate(-130.261 -316.73)" fill="#90abb5"/>
    <path d="M-1209.041-738.081l-.262-.348a.593.593,0,0,1,.271.1C-1209.036-738.248-1209.038-738.165-1209.041-738.081Z" transform="translate(-128.024 -280.222)" fill="#aac1cb"/>
    <path d="M-1216.058-789.949l-.743-.767-1.277.088c-.408.833.427,2.347-1.288,2.514q-.031-1.95-.061-3.9c-.1-5.683-.112-11.37-.322-17.049-.139-3.768-.559-7.526-.851-11.289a4.054,4.054,0,0,1,2.094-4,7.278,7.278,0,0,1,.6,6.594c-.19.224-.388.442-.569.673a3.35,3.35,0,0,0-.154,3.832,2.64,2.64,0,0,0,3.923.514c.349,1.247.7,2.494,1.088,3.887l-4.607.207.916,1.35.85,2.29.644-.8,0,0c.715-.269,1.44-.515,2.142-.814s1.386-.651,2.078-.979c.451-.151.9-.329,1.356-.449.871-.226,1.75-.419,2.626-.626-2.289,1.054-4.55,2.18-6.881,3.133-1.273.521-1.85,1.24-1.621,2.613a6.558,6.558,0,0,1-.043,1.334c-.079.175-.227.349-.228.525-.013,2.825-.021,5.65.012,8.475,0,.288.272.573.418.86Z" transform="translate(-121.238 -228.675)" fill="#aac1cb"/>
    <path d="M-1219.011-689.576l.742.182v.23l-.747.178Q-1219.014-689.281-1219.011-689.576Z" transform="translate(-122.196 -309.529)" fill="#99b2bd"/>
    <path d="M-1228.1-752.528l.325.831-.246.067q-.039-.45-.078-.9Z" transform="translate(-116.749 -271.763)" fill="#d4ebf3"/>
    <path d="M-1238.356-1057.241c.4,2.591.861,5.175,1.194,7.775.479,3.741.875,7.491,1.29,11.24.289,2.615.581,5.231.816,7.852.412,4.6.818,9.2,1.157,13.807.282,3.818.464,7.644.691,11.467q.277,2.137.554,4.273l-.317.555c-2.669,1.088-5.279,2.369-8.024,3.207a77.531,77.531,0,0,1-7.852,1.59c.869-.3,1.727-.635,2.611-.879.863-.239,1.99.2,2.449-1.07a7.045,7.045,0,0,1,1.773.082,8.171,8.171,0,0,0-1.13-1.59c-1.156-.931-2.455-1.728-1.124-3.475.116-.152-.12-.8-.363-.962-2.112-1.443-3.449-3.532-4.814-5.6a30.793,30.793,0,0,1-.733-3.315c-.4-3.543-.9-7.09-1-10.647a71.723,71.723,0,0,1,.555-9.205c.372-3.642.747-7.3,1.445-10.888.831-4.272,2.005-8.478,3.031-12.712.7-1.988,1.382-3.981,2.108-5.959a3.94,3.94,0,0,1,.642-.877,4.889,4.889,0,0,1,.789.764,2.415,2.415,0,0,1,.34.972C-1241.888-1058.23-1241.178-1057.567-1238.356-1057.241Z" transform="translate(-102.895 -85.764)" fill="#adc5ce"/>
    <path d="M-1252-1047.489c-1.026,4.234-2.2,8.44-3.031,12.712-.7,3.588-1.072,7.246-1.445,10.888a71.7,71.7,0,0,0-.555,9.2c.1,3.556.6,7.1,1,10.647a30.8,30.8,0,0,0,.733,3.314c-1.247.957-2.406.378-3.635-.354l-.483,1.54h-1.5q-.006-.287-.012-.574c1.253.079,1.37-.686,1.318-1.634l-1.332.711c.193-4.323.336-8.649.6-12.968.153-2.523.443-5.04.761-7.549q.73-5.754,1.593-11.491c.653-4.311,1.382-8.611,2.077-12.916l2.358-1.093c-.032.134.04-.008.028-.143-.052-.544-.13-1.085-.2-1.628.475.34.954.676,1.424,1.022A2.672,2.672,0,0,1-1252-1047.489Z" transform="translate(-97.044 -94.018)" fill="#a0b8c3"/>
    <path d="M-1265.484-995.817q.006.287.012.574c.138,2.121.275,4.242.435,6.714l-3.5-1.2c.126-1.947.2-3.919.391-5.88.331-3.406.727-6.806,1.106-10.207.577-5.175.955-10.384,1.8-15.516,1.005-6.114,2.39-12.167,3.676-18.232a8.766,8.766,0,0,1,1.094-2.1c-.7,4.305-1.425,8.6-2.078,12.916q-.868,5.735-1.593,11.491c-.318,2.508-.609,5.026-.761,7.549-.261,4.319-.4,8.645-.6,12.968Q-1265.491-996.279-1265.484-995.817Z" transform="translate(-92.491 -98.31)" fill="#d4ebf3"/>
    <path d="M-1205.655-945.541l.317-.555c1.122-.512,2.274-.969,3.362-1.545,3.335-1.763,6.736-3.441,9.351-6.278,2.563-2.781,4.513-5.824,4.061-9.842-.16-1.426-.4-2.842-.608-4.263.169-.132.443-.234.49-.4.276-.964.5-1.944.74-2.917,1.394,4.784,2.855,9.55,4.153,14.361.589,2.186.809,4.469,1.3,6.684.107.479-.223,1.779,1.148,1.162,1.816.613,2.239,1.8,1.137,3.17a28.858,28.858,0,0,1-10.344,7.958,61.724,61.724,0,0,1-5.978,2.156l.021.425a11.98,11.98,0,0,1,1.43.014,6.562,6.562,0,0,1,1.1.325q-5.156.716-10.313,1.428c-.441.06-.891.055-1.337.08Q-1205.636-939.561-1205.655-945.541Z" transform="translate(-130.213 -140.496)" fill="#aac1cb"/>
    <path d="M-1243.986-1121.19l-.592.609Z" transform="translate(-106.863 -50.603)" fill="#99b2bd"/>
    <path d="M-1283.629-747.307l-.639-.459Z" transform="translate(-83.053 -274.62)" fill="#a6bec9"/>
    <path d="M-1252.341-777.836l.229.044-.127.188A.17.17,0,0,1-1252.341-777.836Z" transform="translate(-102.197 -256.581)" fill="#7f99a6"/>
    <path d="M-1287.36-718.629c-1.97-.528-2.106-.723-2.111-3.034.272-.174.54-.357.818-.52.228-.134.627-.4.681-.343.633.648,1.214,1.346,1.809,2.031Z" transform="translate(-79.931 -289.757)" fill="#876548"/>
    <path d="M-1265.011-730.313l-1.213-.4c.284-.215.527-.531.692-.495a2.993,2.993,0,0,1,.864.529Z" transform="translate(-93.877 -284.554)" fill="#9db7c1"/>
    <path d="M-1280.606-708.478c-.084.032-.188.11-.245.084s-.071-.154-.1-.238c.083-.032.187-.11.245-.084S-1280.639-708.562-1280.606-708.478Z" transform="translate(-85.04 -298.044)" fill="#9db7c1"/>
    <path d="M-1280.909-704.254l.246.106c-.035.082-.053.21-.111.233s-.16-.058-.242-.093Z" transform="translate(-85.004 -300.723)" fill="#9db7c1"/>
    <path d="M-1334.6-769.76l-.068.122.069-.122Z" transform="translate(-52.821 -261.426)" fill="#7793a0"/>
    <path d="M-1156.293-843.758q-.557,8.81-1.113,17.619c.047,3.724-1.821,6.479-4.526,8.766-1.155.977-2.425,1.818-3.642,2.719l.351-.975,3.051-5.682c.285-.434.743-.837.826-1.307.54-3.065,1-6.144,1.484-9.219v-5.047a2.976,2.976,0,0,0-.823.009c-4.45,1.843-8.945,3.589-13.326,5.585-4.34,1.977-8.564,4.21-12.839,6.33a1.143,1.143,0,0,0-.29.04l-9.586,3.574q-.035-.3-.069-.608a.467.467,0,0,0,0-.28c.214-3.867.26-3.73,3.972-5,3.091-1.057,6.076-2.44,9.072-3.76,6.626-2.919,13.248-5.85,19.833-8.859C-1161.327-841.041-1158.833-842.45-1156.293-843.758Z" transform="translate(-135.525 -217.035)" fill="#d4ebf3"/>
    <path d="M-1152.551-777.176l-.351.975.033.132-.354.058a31.526,31.526,0,0,1-2.711,2.241,56.641,56.641,0,0,1-5.625,3.419c-2.983,1.507-6.028,2.91-9.125,4.164a8.036,8.036,0,0,1-3.521.316c-.516-.04-.98-.761-1.468-1.173a71.187,71.187,0,0,0,17.078-9.278c1.335-1.019,2.532-2.219,3.792-3.336Z" transform="translate(-148.199 -255.488)" fill="#99b2bd"/>
    <path d="M-1119.562-770.63l.354-.058Z" transform="translate(-181.86 -260.87)" fill="#d4ebf3"/>
    <path d="M-1172.269-718.142l-.32-.1-.487-.525-.45-.621,1.618-2.874Q-1172.088-720.2-1172.269-718.142Z" transform="translate(-149.487 -289.919)" fill="#967251"/>
    <path d="M-1172.4-713.531l.487.525Z" transform="translate(-150.161 -295.158)" fill="#465760"/>
    <path d="M-1186.894-632.951l2.077-2.023c-.068.064-.2.135-.195.192C-1184.81-632.821-1184.856-632.775-1186.894-632.951Z" transform="translate(-141.467 -342.284)" fill="#e1c68e"/>
    <path d="M-1212.517-802.876a2.64,2.64,0,0,1-3.923-.514,3.35,3.35,0,0,1,.154-3.832c.181-.231.379-.449.57-.673,2.269-.149,3.274.78,3.293,3.08C-1212.417-804.169-1212.483-803.522-1212.517-802.876Z" transform="translate(-123.424 -238.54)" fill="#e0f4fb"/>
    <path d="M-1198.406-793.106l9.586-3.574.278,1.017-.869,1.009-.413.085c-1.7.644-3.406,1.282-5.1,1.953-.085.034-.058.35-.083.535v.008c-.876.207-1.755.4-2.626.626-.46.12-.9.3-1.356.449.635-.826.36-1.189-.609-1.2v-.778Z" transform="translate(-133.847 -245.277)" fill="#a0b8c3"/>
    <path d="M-1207.245-785.478c.969.01,1.244.374.609,1.2-.691.328-1.374.68-2.078.979s-1.427.545-2.142.814l-.116-.07.12.067-.644.8-.85-2.29.594-.015.6-.289,3.593-.907.3-.29Z" transform="translate(-126.199 -251.997)" fill="#90abb5"/>
    <path d="M-1210.258-782.481l-.6.289Z" transform="translate(-127.09 -253.795)" fill="#aac1cb"/>
    <path d="M-1197.3-789.965a.463.463,0,0,1,0,.28l-.335-.14Z" transform="translate(-135.025 -249.305)" fill="#a0b8c3"/>
    <path d="M-1200.071-785.473l-.3.29Z" transform="translate(-133.381 -252)" fill="#a0b8c3"/>
    <path d="M-1265.91-681.805c.082.036.209.055.233.114s-.058.158-.094.24c-.082-.036-.21-.054-.233-.113S-1265.946-681.723-1265.91-681.805Z" transform="translate(-94.007 -314.19)" fill="#99b2bd"/>
    <path d="M-1291.669-604.8a2.573,2.573,0,0,1,.522-.234c.341-.071.691-.1,1.037-.142-.066.349-.018.793-.217,1.031-.7.829-1.475,1.586-2.191,2.336-1.974-.915-2.08-1.254-.988-2.811Z" transform="translate(-77.095 -360.159)" fill="#593b2f"/>
    <path d="M-1290.631-608.218l-1.836.18q.034-.974.069-1.945c.649-.584,1.255-1.333,2.241-.557Q-1290.395-609.379-1290.631-608.218Z" transform="translate(-78.134 -356.743)" fill="#90abb5"/>
    <path d="M-1180.428-1020.131c-1.371.616-1.04-.683-1.148-1.162-.495-2.215-.714-4.5-1.3-6.684-1.3-4.811-2.759-9.577-4.154-14.361-.588-1.885-1.159-3.775-1.768-5.652-1.3-4.009-2.511-8.053-3.966-12.006-2-5.442-4.17-10.825-6.331-16.208-.542-1.35-1.328-2.6-2-3.9q-.732-2.027-1.463-4.054-.785-2.162-1.577-4.322l1.2-1.206q.017.3.035.592l.579.886.887,1.834c2.181,5.151,4.5,10.25,6.508,15.466,2.423,6.291,4.752,12.629,6.815,19.045,2.091,6.5,3.851,13.111,5.669,19.7.684,2.478,1.122,5.023,1.672,7.537Q-1180.6-1022.38-1180.428-1020.131Z" transform="translate(-131.122 -69.502)" fill="#7a97a3"/>
    <path d="M-1143.432-975.809l.85.078-.426.7-.422-.779Z" transform="translate(-167.54 -137.817)" fill="#e0f4fb"/>
    <path d="M-1189.409-1080.724l1.223,2.682-1.343,1.527-.48-.057-.437-2.54c.152.064-.234.023-.328-.165a5.8,5.8,0,0,1-.328-1.28c.362-.05.723-.108,1.085-.147C-1189.816-1080.727-1189.612-1080.719-1189.409-1080.724Z" transform="translate(-138.943 -74.879)" fill="#aac1cb"/>
    <path d="M-1183.6-1087.605c.036-.082.055-.209.114-.233s.158.059.24.094c-.036.082-.054.21-.113.234S-1183.517-1087.569-1183.6-1087.605Z" transform="translate(-143.444 -70.609)" fill="#d4ebf3"/>
    <path d="M-1210.579-1108.089l-1.2,1.206-5.094-10.5c1.244-.672.063-1.375.043-2.067a3.3,3.3,0,0,1,.238-.909l5.4,10.479Z" transform="translate(-123.483 -51.1)" fill="#869fac"/>
    <path d="M-1200.478-1087.322l-.579-.887Z" transform="translate(-132.971 -70.389)" fill="#a0b8c3"/>
    <path d="M-1194.464-1041.272c.205,1.42.448,2.837.608,4.262.453,4.018-1.5,7.061-4.061,9.842-2.615,2.838-6.016,4.515-9.351,6.278-1.089.576-2.24,1.033-3.363,1.545q-.277-2.135-.554-4.272a7.193,7.193,0,0,0,4.018-5.543c.393-3.3-.032-6.7-.2-10.054-.1-2.076-.312-4.151-.581-6.214-.576-4.419-1.23-8.828-1.838-13.243-.493-3.58-.955-7.163-1.449-10.743q-1.167-8.461-2.357-16.921c-.306-2.2-.607-4.406-.885-6.612-.02-.153.164-.331.252-.5a9.923,9.923,0,0,1,.845,1.171c1.629,3.1,3.235,6.206,4.848,9.312l.582.922,0,.005a36.047,36.047,0,0,0,1.265,3.635,174.158,174.158,0,0,1,9.036,25.277C-1196.509-1049.2-1195.522-1045.224-1194.464-1041.272Z" transform="translate(-124.92 -67.248)" fill="#cfe6ef"/>
    <path d="M-1210.444-1094.648c-1.613-3.105-3.219-6.215-4.848-9.312a9.9,9.9,0,0,0-.845-1.171q-.765-3.89-1.531-7.78l.319-.014,5.094,10.5q.789,2.161,1.577,4.322.735,2.026,1.463,4.054l-.651.325,0-.005q-.114-.54-.228-1.08Z" transform="translate(-123.006 -55.562)" fill="#adc5ce"/>
    <path d="M-1255.783-673.455c-2.047.08-3.429-1.714-2.112-4.123,2.163-.046,2.9,1.082,2.391,3.652l-.014-.016Q-1255.652-673.7-1255.783-673.455Z" transform="translate(-98.564 -316.725)" fill="#cda66e"/>
    <path d="M-1254.73-676.142c.51-2.57-.228-3.7-2.391-3.652a1.971,1.971,0,0,1,2.55-1.362,2.163,2.163,0,0,1,1.494,2.794l-.56,1.228-.389.523-.2.376Z" transform="translate(-99.338 -314.51)" fill="#aac1cb"/>
    <path d="M-1251.842-668q.132-.244.265-.487c-.024.178-.048.356-.072.534A1,1,0,0,1-1251.842-668Z" transform="translate(-102.505 -322.178)" fill="#aac1cb"/>
    <path d="M-1112.153-814.547c-.485,3.075-.944,6.154-1.484,9.219-.083.47-.541.873-.827,1.307-.613-.843-1.285-1.119-2.133-.276-.153.152-.444.166-.671.244,1.456-2.407,2.916-4.824,3.211-7.7.062-.6.7-1.516-.474-1.868l-1.812-.032C-1115.226-815.262-1113.731-815.1-1112.153-814.547Z" transform="translate(-183.237 -234.326)" fill="#9db7c1"/>
    <path d="M-1121.013-788.87c.227-.078.517-.092.671-.244.848-.842,1.52-.566,2.133.276l-3.05,5.682-2.252-2.482Z" transform="translate(-179.49 -249.51)" fill="#90abb5"/>
    <path d="M-1147.756-811.728l1.812.032c-2.6.642-5.237,1.149-7.782,1.953-5.108,1.614-10.165,3.391-15.243,5.1-.187.063-.38.107-.57.159l-.094-.356c.245-.239.5-.694.734-.682,2.069.11,3.327-2.277,5.513-1.763.158.037.363-.137.549-.206a81.766,81.766,0,0,1,14.184-3.937l.6-.3Z" transform="translate(-151.822 -236.25)" fill="#adc5ce"/>
    <path d="M-1188.12-788.916c.025-.185,0-.5.083-.535,1.691-.671,3.395-1.308,5.1-1.953Z" transform="translate(-140.732 -248.443)" fill="#aac1cb"/>
    <path d="M-1209.633-757.61c-.146-.286-.414-.572-.418-.86-.033-2.825-.026-5.65-.012-8.474,0-.176.149-.35.228-.525Z" transform="translate(-127.562 -262.801)" fill="#cfe6ef"/>
    <path d="M-1172.337-795.874l.094.356-1.9.8.869-1.009-.278-1.017a1.146,1.146,0,0,1,.29-.04Z" transform="translate(-149.118 -245.217)" fill="#aac1cb"/>
    <path d="M-1213.742-716.687c.742-.662,1.488-.954,2.278,0l-1.05,1.982-.732-1.253-.868,2.817-.545-.856Z" transform="translate(-124.811 -292.899)" fill="#cfe6ef"/>
    <path d="M-1213.3-711.12l.868-2.817.732,1.253C-1212.09-710.691-1212.154-710.629-1213.3-711.12Z" transform="translate(-125.628 -294.915)" fill="#e1c68e"/>
    <path d="M-1200.844-677.642c-.008.592-.03,1.184-.018,1.776.014.705-.081,1.425-.99,1.183-.367-.1-.609-.741-.858-1.165-.088-.15-.025-.387-.032-.584C-1202.209-676.992-1201.945-677.973-1200.844-677.642Z" transform="translate(-131.95 -316.648)" fill="#cda66e"/>
    <path d="M-1260.931-929.524q-.007-.462-.014-.924l1.332-.711C-1259.561-930.209-1259.678-929.445-1260.931-929.524Z" transform="translate(-97.044 -164.604)" fill="#aac1cb"/>
    <path d="M-1198.169-1065.412l.651-.325c.674,1.3,1.46,2.55,2,3.9,2.161,5.383,4.328,10.766,6.331,16.208,1.455,3.954,2.664,8,3.966,12.006.61,1.878,1.18,3.768,1.769,5.652-.24.974-.463,1.953-.74,2.917-.047.167-.321.27-.49.4-1.058-3.951-2.045-7.923-3.188-11.85a174.137,174.137,0,0,0-9.035-25.277A36.062,36.062,0,0,1-1198.169-1065.412Z" transform="translate(-134.703 -83.87)" fill="#9db7c1"/>
    <path d="M-1171.017-813.788l-.923-.906c4.275-2.12,8.5-4.353,12.839-6.33,4.381-2,8.876-3.742,13.326-5.585a2.975,2.975,0,0,1,.824-.009v5.047c-1.579-.551-3.073-.715-4.189.9l-.3,0-.6.3a81.76,81.76,0,0,0-14.184,3.937c-.186.069-.391.243-.549.206-2.185-.513-3.443,1.874-5.513,1.763C-1170.515-814.483-1170.772-814.027-1171.017-813.788Z" transform="translate(-150.438 -227.302)" fill="#a0b8c3"/>
    <path d="M-1208.79-778.106l-.12-.067.116.07Z" transform="translate(-128.26 -256.379)" fill="#aac1cb"/>
    <path d="M-1199.612-1067.48l.354-.157q.115.54.228,1.08Z" transform="translate(-133.838 -82.73)" fill="#9db7c1"/>
    <path d="M-1117.2-811.424l.6-.3Z" transform="translate(-183.277 -236.255)" fill="#9db7c1"/>
  </g>
</svg>
