<svg xmlns="http://www.w3.org/2000/svg" width="32.466" height="32.46" viewBox="0 0 32.466 32.46">
  <g transform="translate(0 0)">
    <path d="M6292.572-3430.733q5.659,0,11.318,0a4.846,4.846,0,0,1,4.778,3.857,4.955,4.955,0,0,1,.1,1.037q.008,11.331,0,22.662a4.852,4.852,0,0,1-4.911,4.9q-11.317,0-22.635,0a4.855,4.855,0,0,1-4.917-4.927q0-11.3,0-22.6a4.855,4.855,0,0,1,4.943-4.932Q6286.914-3430.735,6292.572-3430.733Zm-.029,3.868q-3.74,0-7.481,0a4.749,4.749,0,0,0-4.881,4.888q0,7.464,0,14.928a4.751,4.751,0,0,0,4.9,4.9q7.466,0,14.931,0a4.752,4.752,0,0,0,4.9-4.9q0-7.448,0-14.9a4.75,4.75,0,0,0-4.914-4.919Q6296.268-3426.866,6292.542-3426.865Z" transform="translate(-6276.31 3430.734)" fill="#fff" />
    <path d="M6332.24-3385.287h7.418a2.856,2.856,0,0,1,3.029,3.012q0,7.448,0,14.9a2.858,2.858,0,0,1-3.029,3.013h-14.867a2.857,2.857,0,0,1-3.028-3.012q0-7.448,0-14.9a2.857,2.857,0,0,1,3.028-3.013Zm6.642,10.452a6.668,6.668,0,0,0-6.657-6.647,6.667,6.667,0,0,0-6.657,6.646,6.669,6.669,0,0,0,6.672,6.664A6.669,6.669,0,0,0,6338.882-3374.835Zm1.9-6.644a1.9,1.9,0,0,0-1.888-1.9,1.905,1.905,0,0,0-1.912,1.88,1.906,1.906,0,0,0,1.9,1.921A1.908,1.908,0,0,0,6340.782-3381.479Z" transform="translate(-6315.992 3391.057)" fill="#fff" />
    <path d="M6371.489-3340.342a4.763,4.763,0,0,1,4.742,4.768,4.765,4.765,0,0,1-4.769,4.742,4.765,4.765,0,0,1-4.742-4.769A4.763,4.763,0,0,1,6371.489-3340.342Z" transform="translate(-6355.243 3351.817)" fill="#fff" />
  </g>
</svg>