<svg xmlns="http://www.w3.org/2000/svg" width="54.875" height="52.544" viewBox="0 0 54.875 52.544">
  <g transform="translate(-1016.534 581.458)">
    <path d="M1038.891-544.058l22.732-27.349-.122-.135c-.156.116-.319.223-.467.349q-6.5,5.544-12.994,11.091-7.86,6.712-15.716,13.429a.631.631,0,0,1-.713.139q-6.893-2.372-13.8-4.714a1.686,1.686,0,0,1-1.274-1.543,1.7,1.7,0,0,1,1.047-1.707q20.822-10.854,41.641-21.714c3.142-1.639,6.288-3.271,9.424-4.923a1.8,1.8,0,0,1,2.06,0,1.83,1.83,0,0,1,.654,1.953c-.713,4.686-1.394,9.377-2.092,14.065q-1.1,7.376-2.206,14.751-.941,6.319-1.868,12.64c-.174,1.188-.616,1.792-1.53,1.9a2.439,2.439,0,0,1-1.041-.142C1054.741-538.645,1046.856-541.339,1038.891-544.058Z" transform="translate(0 0)" fill="#fff" />
    <path d="M1109.94-393.818l9.226,3.15c-.117.168-.211.311-.313.449q-2.881,3.919-5.765,7.836a1.684,1.684,0,0,1-2.7.326,1.831,1.831,0,0,1-.474-1.085c-.037-3.512-.024-7.023-.024-10.535A.592.592,0,0,1,1109.94-393.818Z" transform="translate(-73.334 -147.399)" fill="#fff" />
  </g>
</svg>