<svg xmlns="http://www.w3.org/2000/svg" width="32.456" height="32.46" viewBox="0 0 32.456 32.46">
  <g transform="translate(0 0)">
    <path d="M6231.666-3890.749c0-3.348-.015-6.7,0-10.043a5.978,5.978,0,0,1,3.637-5.651,5.417,5.417,0,0,1,2.429-.505q10.155,0,20.309,0a6.111,6.111,0,0,1,5.973,4.995,7.676,7.676,0,0,1,.094,1.2q.009,10.044,0,20.087a6.015,6.015,0,0,1-4.188,5.864,6.544,6.544,0,0,1-1.959.3c-6.717.021-13.434-.006-20.15.021a6.136,6.136,0,0,1-6.048-4.984,8.28,8.28,0,0,1-.1-1.292Q6231.658-3885.759,6231.666-3890.749Zm6.06-1.9a4.627,4.627,0,0,0,3.518,4.391l-.01.091h-1.711a4.326,4.326,0,0,0,1.122,1.808,4.38,4.38,0,0,0,3,1.271,8.989,8.989,0,0,1-6.508,1.856,11.718,11.718,0,0,0,2.522,1.245,12.762,12.762,0,0,0,6.115.584,11.462,11.462,0,0,0,6.1-2.639,12.844,12.844,0,0,0,4.639-10.2.562.562,0,0,1,.172-.363c.3-.292.653-.539.944-.842.357-.372.675-.783,1.061-1.238l-2.313.635-.046-.107a4.325,4.325,0,0,0,1.778-2.356,8.559,8.559,0,0,1-2.6,1.01.452.452,0,0,1-.352-.084,4.394,4.394,0,0,0-2.58-1.227,4.435,4.435,0,0,0-4.935,4.171c-.012.406,0,.814,0,1.255a12.764,12.764,0,0,1-9.078-4.623,4.655,4.655,0,0,0-.585,2.779,4.234,4.234,0,0,0,1.87,3.115A5.524,5.524,0,0,1,6237.726-3892.649Z" transform="translate(-6231.66 3906.953)" fill="#fff"/>
  </g>
</svg>
