<svg xmlns="http://www.w3.org/2000/svg" width="31.815" height="31.814" viewBox="0 0 31.815 31.814">
  <path d="M5799.138-3560.658v-11.225h4.706c.312-1.868.62-3.711.933-5.589h-5.632v-3.794h5.612v-5.6h-.332q-2.563,0-5.126,0a5.6,5.6,0,0,0-5.764,5.768c0,1.189,0,2.379,0,3.6h-3.71v5.585h3.689v11.248c-.064,0-.123.013-.182.013-3.055,0-6.109.01-9.164,0a4.63,4.63,0,0,1-4.574-3.726,5.117,5.117,0,0,1-.1-1.047q-.008-11.12,0-22.24a4.655,4.655,0,0,1,4.784-4.791q11.121-.005,22.242,0a4.655,4.655,0,0,1,4.784,4.791q0,11.12,0,22.24a4.645,4.645,0,0,1-3.721,4.674,4.328,4.328,0,0,1-.893.1c-2.464.008-4.928,0-7.393,0C5799.255-3560.648,5799.214-3560.653,5799.138-3560.658Z" transform="translate(-5779.491 3592.458)" fill="#fff" />
</svg>