<svg xmlns="http://www.w3.org/2000/svg" viewBox="0 0 55 55">
  <circle cx="27.5" cy="27.5" r="27.5" fill="#ecbabc" />
  <g transform="translate(11.742,15.416) scale(1.5)">
    <path d="M850.467-946.322a2.416,2.416,0,0,1,.186-.254q5.1-5.105,10.207-10.208a1.669,1.669,0,0,1,2.577,0c.2.2.4.4.6.6a1.657,1.657,0,0,1,0,2.473q-1.758,1.764-3.521,3.522-4.6,4.6-9.192,9.193a1.088,1.088,0,0,1-1.144.35,1.3,1.3,0,0,1-.516-.306q-3.1-3.079-6.181-6.175a1.643,1.643,0,0,1,.012-2.411q.348-.353.7-.7a1.646,1.646,0,0,1,2.41,0q1.849,1.837,3.686,3.686A2.449,2.449,0,0,1,850.467-946.322Z" transform="translate(-842.959 957.392)" fill="#fff" />
  </g>
</svg>